<?xml version="1.0" standalone="no"?>
<!DOCTYPE svg PUBLIC "-//W3C//DTD SVG 20010904//EN"
 "http://www.w3.org/TR/2001/REC-SVG-20010904/DTD/svg10.dtd">
<svg version="1.0" xmlns="http://www.w3.org/2000/svg"
 width="16.000000pt" height="16.000000pt" viewBox="0 0 16.000000 16.000000"
 preserveAspectRatio="xMidYMid meet">
<metadata>
Created by potrace 1.11, written by Peter Selinger 2001-2013
</metadata>
<g transform="translate(0.000000,16.000000) scale(0.001563,-0.001563)"
fill="#000000" stroke="none">
<path d="M5120 8270 l0 -1220 1945 0 1945 0 0 1220 0 1220 -1945 0 -1945 0 0
-1220z m2124 757 c225 -84 347 -283 363 -597 11 -211 -24 -401 -101 -545 l-42
-80 118 -75 c65 -41 118 -77 118 -81 0 -9 -227 -169 -240 -169 -26 0 -136 67
-186 113 l-53 48 -43 -12 c-67 -19 -252 -16 -323 5 -131 39 -233 116 -300 226
-44 72 -90 212 -106 319 -15 109 -6 353 16 441 54 207 179 354 347 409 90 29
100 30 238 27 105 -3 136 -8 194 -29z"/>
<path d="M6950 8788 c-95 -48 -141 -185 -143 -423 -3 -338 75 -506 228 -493
70 6 107 35 145 112 42 84 59 192 59 366 1 251 -45 392 -143 440 -54 26 -91
25 -146 -2z"/>
<path d="M2780 8930 l0 -130 100 0 100 0 0 -530 0 -530 -100 0 -100 0 0 -130
0 -130 410 0 410 0 0 130 0 129 -97 3 -98 3 0 525 0 525 98 3 97 3 0 129 0
130 -410 0 -410 0 0 -130z"/>
<path d="M1230 3660 l0 -2830 1506 0 1505 0 -273 218 c-150 119 -427 340 -616
491 -188 150 -341 276 -339 279 2 4 475 1054 1052 2335 576 1280 1051 2327
1054 2327 4 0 476 -1043 1050 -2317 574 -1275 1048 -2325 1052 -2334 7 -14
-110 -111 -599 -500 -334 -265 -611 -486 -616 -491 -6 -4 668 -8 1497 -8
l1507 0 0 2830 0 2830 -3890 0 -3890 0 0 -2830z"/>
</g>
</svg>
