<svg xmlns="http://www.w3.org/2000/svg" viewBox="0 0 25.7 25.7">
    <defs>
        <style>
            .cls-1 {
            fill: #f69a12;
            }
        </style>
    </defs>
    <title>Asset 1</title>
    <g id="Layer_2" data-name="Layer 2">
        <g id="Layer_1-2" data-name="Layer 1">
            <path class="cls-1" d="M8.11,9.11a2.08,2.08,0,0,0,1.19-.37l3.38,2a1.61,1.61,0,0,0,0,.17,2.1,2.1,0,1,0,4.05-.74L20.64,6l2.3,2L24.34.55,17.2,3l2,1.76L15.37,8.92a2.06,2.06,0,0,0-.6-.09,2.09,2.09,0,0,0-1.14.34L10.2,7.12s0-.07,0-.11a2.1,2.1,0,1,0-4.11.58L3.3,10.15v2.52L7.34,9A2.09,2.09,0,0,0,8.11,9.11Zm0,7.52A2.09,2.09,0,0,0,9.59,16l6,2.25a2.1,2.1,0,1,0,4-1l3.53-4,1.36,1.05.66-5-4.71,1.92,1.22.94L18.24,16a2.07,2.07,0,0,0-2,.5l-6.08-2.27A2.1,2.1,0,0,0,6,14.53c0,.06,0,.12,0,.17L3.3,16.38v2.18L7,16.29A2.09,2.09,0,0,0,8.11,16.63ZM1.85,23.84v0H1.79V0H0V25.7H25.7V23.84Z"/>
        </g>
    </g>
</svg>