<svg viewBox="0 0 16 11.92" xmlns="http://www.w3.org/2000/svg" xmlns:xlink="http://www.w3.org/1999/xlink"><symbol id="a" viewBox="0 0 16 11.92"><path d="m15.8 8.94a2 2 0 0 0 -1.28-1.16 11.49 11.49 0 0 1 -1.22-.55v-.96a1.78 1.78 0 0 0 .48-1.17c.23.07.47-.34.49-.56s0-.79-.31-.73a6 6 0 0 0 .08-1 1.89 1.89 0 0 0 -2-1.56 1.89 1.89 0 0 0 -2 1.56 5.84 5.84 0 0 0 .08 1c-.28-.06-.33.52-.31.73s.26.63.49.56a1.78 1.78 0 0 0 .48 1.17l-.78.65c.46.25 1.66.12 1.91.51.15.23.54.84.43 4.49h3.66a12.29 12.29 0 0 0 -.2-2.98z" fill="#252627"/><path d="m10.78 8.6c-.33-.51-1.44-.83-2.54-1.29a12.68 12.68 0 0 1 -1.36-.62v-1.05a2 2 0 0 0 .54-1.31c.26.07.53-.38.54-.62s0-.88-.35-.81a6.65 6.65 0 0 0 .09-1.16 2.1 2.1 0 0 0 -2.2-1.74 2.1 2.1 0 0 0 -2.2 1.74 6.5 6.5 0 0 0 .09 1.15c-.31-.06-.39.58-.39.81s.28.7.54.62a2 2 0 0 0 .54 1.31v1.06a12.76 12.76 0 0 1 -1.36.62c-1.06.45-2.17.77-2.5 1.29a13.71 13.71 0 0 0 -.22 3.32h11a13.73 13.73 0 0 0 -.22-3.32z" fill="#252627"/></symbol><use height="11.92" width="16" xlink:href="#a"/></svg>