<svg xmlns="http://www.w3.org/2000/svg" viewBox="0 0 18.59 26">
    <defs>
        <style>
            .cls-1 {
            fill: #f69a12;
            }
        </style>
    </defs>
    <title>Asset 1</title>
    <g id="Layer_2" data-name="Layer 2">
        <g id="Layer_1-2" data-name="Layer 1">
            <path class="cls-1" d="M17.58,12.25l-.8-.8L12.49,7.16,13.75,5.9A3.46,3.46,0,1,0,8.86,1L1.32,8.58A3.46,3.46,0,0,0,1,13.75L6.1,18.84,4.84,20.09A3.46,3.46,0,0,0,7.29,26h0a3.45,3.45,0,0,0,2.44-1h0l7.84-7.84a3.46,3.46,0,0,0,0-4.89ZM10,2.2a1.78,1.78,0,1,1,2.51,2.52l-.5.5L6.81,10.46A3.46,3.46,0,0,0,4.32,8Zm-1.5,21.6A1.78,1.78,0,1,1,6,21.28L7.29,20l.46.46.8.8a1.78,1.78,0,0,1,0,2.51ZM16.39,16,10.64,21.7a3.44,3.44,0,0,0-.9-1.61l-.8-.8L2.2,12.56a1.78,1.78,0,1,1,2.51,0L5.9,13.75l5.4-5.4,4.29,4.29.8.8a1.78,1.78,0,0,1,0,2.52ZM10.9,9.83,6.42,14.32l1.19,1.19L12.09,11Zm1.79,1.79L8.21,16.11,9.4,17.3l4.48-4.48ZM10,17.9l1.19,1.19,4.48-4.48-1.19-1.19Z"/>
        </g>
    </g>
</svg>