<svg xmlns="http://www.w3.org/2000/svg" width="43" height="42.938" viewBox="0 0 43 42.938">
<defs>
    <style>
      .cls-1 {
        fill: #98c8fe;
        fill-rule: evenodd;
      }
    </style>
  </defs>
  <path class="cls-1" d="M928.31,816.112a19.338,19.338,0,0,0-10.482-5.365V806.6h-6.752V810.8a19.249,19.249,0,0,0-5.7,1.992l-3.431-3.4,1.166-1.158-2.222-2.205-9.878,9.8,2.221,2.206,1.388-1.381,3.287,3.263a19.145,19.145,0,0,0,2.979,23.423,19.5,19.5,0,0,0,27.428,0A19.149,19.149,0,0,0,928.31,816.112Zm-4.162,23.093a13.594,13.594,0,0,1-19.1,0,13.356,13.356,0,0,1,0-18.962,13.6,13.6,0,0,1,19.1,0A13.358,13.358,0,0,1,924.148,839.205Zm-2.758-11.029-6.092-.1-6.655-6.6a1.676,1.676,0,0,0-2.362,0,1.647,1.647,0,0,0,0,2.345l7.613,7.553,7.443,0.117A1.657,1.657,0,1,0,921.39,828.176Z" transform="translate(-891 -806.031)"/>
</svg>
