<svg xmlns="http://www.w3.org/2000/svg" viewBox="0 0 27.25 27.68">
    <defs>
        <style>
            .cls-1 {
            fill: #252627;
            }
        </style>
    </defs>
    <title>Asset 3</title>
    <g id="Layer_2" data-name="Layer 2">
        <g id="Layer_1-2" data-name="Layer 1">
            <polygon class="cls-1"
                    points="5.7 2.17 3.73 4.13 1.77 2.17 0 3.94 1.96 5.9 0 7.87 1.77 9.64 3.73 7.67 5.7 9.64 7.47 7.87 5.5 5.9 7.47 3.94 5.7 2.17"/>
            <polygon class="cls-1"
                    points="5.7 18.03 3.73 20 1.77 18.03 0 19.8 1.96 21.77 0 23.73 1.77 25.5 3.73 23.54 5.7 25.5 7.47 23.73 5.5 21.77 7.47 19.8 5.7 18.03"/>
            <polygon class="cls-1"
                    points="27.25 11.39 25.48 9.62 23.52 11.58 21.55 9.62 19.78 11.39 21.75 13.35 19.78 15.31 21.55 17.08 23.52 15.12 25.48 17.08 27.25 15.31 25.29 13.35 27.25 11.39"/>
            <path class="cls-1" d="M18.16,19.11a4.28,4.28,0,1,0,4.28,4.28A4.28,4.28,0,0,0,18.16,19.11Zm0,6.06a1.78,1.78,0,1,1,1.78-1.78A1.78,1.78,0,0,1,18.16,25.17Z"/>
            <path class="cls-1" d="M11.46,12.65,19,5.08,20.91,7l1.43-7-7,1.42,1.88,1.88L8.81,11.76a1.25,1.25,0,0,0,0,1.77l4.81,4.81,1.77-1.77Z"/>
        </g>
    </g>
</svg>