<svg xmlns="http://www.w3.org/2000/svg" width="42.938" height="30.03" viewBox="0 0 42.938 30.03">
  <defs>
    <style>
      .cls-1 {
        fill: #52e6cf;
        fill-rule: evenodd;
      }
    </style>
  </defs>
  <path class="cls-1" d="M528.58,1250.88c-1.523-.67-3.208-1.45-4.727-2.1l-1.3-.36a6.878,6.878,0,0,1-1.3-2.22l-0.827-.12c0.041-.95.606-1,0.827-1.72a12.263,12.263,0,0,1,.328-2.06,7.854,7.854,0,0,1,.942-0.77,3.609,3.609,0,0,0,.434-1.27,4.36,4.36,0,0,0-.093-2.4,2.124,2.124,0,0,1-.357-0.94c-0.064-.6.169-2.55,0.179-2.97a11.912,11.912,0,0,0-.256-3.16,2.76,2.76,0,0,0-.794-1.26l-0.967-.17-0.6-.58c-2.407-1.54-4.986-.46-6.368.12-1.992.68-3.249,3.61-2.372,7.95,0.15,0.74-.389,1.07-0.354,1.48,0.077,0.88.093,3.01,0.9,3.53a2.091,2.091,0,0,0,.638.16c0.08,0.86.157,1.72,0.237,2.58,0.2,0.57.679,0.64,0.82,1.45l-0.613.15a6.9,6.9,0,0,1-1.3,2.22l-1.3.36c-1.516.65-3.2,1.43-4.724,2.1-1.386.6-3.042,0.82-3.543,2.33,0,1.03-.093,3.45-0.067,4.8H532.19c0.025-1.35-.067-3.77-0.067-4.8C531.621,1251.7,529.962,1251.48,528.58,1250.88Zm8.531-.14c-1.082-.48-2.285-1.03-3.367-1.5-0.306-.08-0.616-0.17-0.926-0.26a4.759,4.759,0,0,1-.925-1.58c-0.2-.03-0.393-0.05-0.591-0.08,0.032-.68.434-0.72,0.591-1.23a8.673,8.673,0,0,1,.236-1.47,5.5,5.5,0,0,1,.67-0.54,2.667,2.667,0,0,0,.31-0.91,3.122,3.122,0,0,0-.067-1.71,1.577,1.577,0,0,1-.256-0.67c-0.044-.43.122-1.82,0.128-2.12a8.574,8.574,0,0,0-.182-2.25,1.975,1.975,0,0,0-.568-0.9l-0.686-.12-0.428-.41c-1.714-1.1-3.552-.33-4.539.08-1.42.49-2.317,2.58-1.688,5.67a2.887,2.887,0,0,1-.252,1.05c0.054,0.63.064,2.15,0.635,2.52a1.339,1.339,0,0,0,.456.11c0.058,0.62.115,1.23,0.17,1.84a3.988,3.988,0,0,1,.584,1.03l-0.438.11a8.42,8.42,0,0,1-.616,1.22c0.546,0.24,1.1.49,1.641,0.73,0.632,0.29,1.258.57,1.861,0.83,0.287,0.13.587,0.24,0.906,0.35,1.188,0.43,2.535.92,3.039,2.44l0.038,0.12v0.12c0,0.4.016,1.03,0.032,1.7,0.007,0.29.013,0.6,0.019,0.91h6.789c0.016-.96-0.048-2.69-0.048-3.42C539.282,1251.32,538.1,1251.17,537.111,1250.74Zm7.836,0.69c-0.249-.75-1.075-0.86-1.762-1.16-0.756-.34-1.6-0.72-2.352-1.04-0.214-.06-0.431-0.13-0.645-0.19a3.286,3.286,0,0,1-.648-1.1l-0.408-.06a2.386,2.386,0,0,1,.408-0.86,6.31,6.31,0,0,1,.166-1.02,3.914,3.914,0,0,1,.466-0.38,1.808,1.808,0,0,0,.217-0.63,2.227,2.227,0,0,0-.044-1.2,1.033,1.033,0,0,1-.179-0.46c-0.032-.3.083-1.27,0.089-1.48a6.011,6.011,0,0,0-.127-1.57,1.4,1.4,0,0,0-.4-0.63l-0.482-.09-0.3-.28a3.289,3.289,0,0,0-3.166.06c-0.99.33-1.618,1.79-1.181,3.95a1.89,1.89,0,0,1-.176.73c0.039,0.45.048,1.5,0.447,1.76a0.9,0.9,0,0,0,.316.08c0.042,0.43.08,0.86,0.118,1.29a2.63,2.63,0,0,1,.409.71l-0.307.08a4.68,4.68,0,0,1-.529.99c0.389,0.17.785,0.35,1.174,0.52,0.45,0.2.9,0.4,1.331,0.59,0.2,0.09.409,0.17,0.632,0.25a3.163,3.163,0,0,1,2.3,1.87l0.041,0.12v0.12c0,0.28.01,0.73,0.02,1.2,0,0.07,0,.14.006,0.21h4.6C544.992,1253.15,544.947,1251.94,544.947,1251.43Z" transform="translate(-502.031 -1227.97)"/>
</svg>
