<svg viewBox="0 0 26.17 26.3" xmlns="http://www.w3.org/2000/svg"><path d="m22.19 3.8v10.9l-5.65-3v3.66l-7.95-3.68v4l-8.59-4v14.62h26.17v-22.5zm-1.38-2.29a3.46 3.46 0 0 1 2 .73 4.84 4.84 0 0 1 .6.52l.15.17.15-.12 1-.8a5.88 5.88 0 0 0 -1.09-1 5 5 0 0 0 -2.94-1 5.83 5.83 0 0 0 -3.98 1.99l1.06 1a4.33 4.33 0 0 1 3.05-1.49zm-11.25 3.66a5 5 0 0 0 2.94 1 5.85 5.85 0 0 0 4.1-2l-1.06-1.02a4.34 4.34 0 0 1 -3 1.54 3.47 3.47 0 0 1 -2-.73 4.64 4.64 0 0 1 -.6-.52l-.15-.16-1.2.92a5.81 5.81 0 0 0 .97.97zm.11-1.95-.17.13zm-5.13-1.71a3.47 3.47 0 0 1 2 .73 4.66 4.66 0 0 1 .6.52l.15.17 1.2-.92a5.81 5.81 0 0 0 -1.01-1.01 5 5 0 0 0 -2.94-1 5.83 5.83 0 0 0 -4.11 2l1.07 1a4.33 4.33 0 0 1 3.04-1.49zm3 1.33-.17.16z" fill="#252627"/></svg>