<svg xmlns="http://www.w3.org/2000/svg" viewBox="0 0 26.3 26.04">
    <defs>
        <style>
            .cls-1 {
            fill: #98c8fe;
            }
        </style>
    </defs>
    <title>Asset 1</title>
    <g id="Layer_2" data-name="Layer 2">
        <g id="Layer_1-2" data-name="Layer 1">
            <path class="cls-1" d="M18.38,18.85h-2.7v2.7h2.7Zm-3.81-7.23h-2.7v2.7h2.7Zm3.81,3.62h-2.7v2.7h2.7Zm3.8-3.62h-2.7v2.7h2.7Zm-7.61,3.62h-2.7v2.7h2.7Zm3.81-3.62h-2.7v2.7h2.7Zm3.8,3.62h-2.7v2.7h2.7ZM7,18.85H4.26v2.7H7Zm0-3.62H4.26v2.7H7ZM21.49,2.09V3.28a2.25,2.25,0,1,1-3,0V2.09H8V3.28a2.25,2.25,0,1,1-3,0V2.09H0V26H26.3V2.09Zm2.41,21.54H2.4v-15H23.89Zm-13.13-12H8.06v2.7h2.7Zm0,7.23H8.06v2.7h2.7Zm3.8,0h-2.7v2.7h2.7Zm-3.8-3.62H8.06v2.7h2.7Zm-4.26-9A1.12,1.12,0,0,0,7.62,5.15v-4a1.12,1.12,0,0,0-2.24,0v4A1.12,1.12,0,0,0,6.5,6.28ZM20,6.28a1.12,1.12,0,0,0,1.12-1.12v-4a1.12,1.12,0,1,0-2.24,0v4A1.12,1.12,0,0,0,20,6.28Z"/>
        </g>
    </g>
</svg>