<svg xmlns="http://www.w3.org/2000/svg" viewBox="0 0 25.47 25.47">
    <defs>
        <style>
            .cls-1 {
            fill: white;
            }
        </style>
    </defs>
    <title>Asset 2</title>
    <g id="Layer_2" data-name="Layer 2">
        <g id="Layer_1-2" data-name="Layer 1">
            <path class="cls-1" d="M21.74,3.73A12.74,12.74,0,0,0,0,12.83,12.74,12.74,0,0,0,12.73,25.47h0a12.73,12.73,0,0,0,9-21.74ZM20.21,20.21a10.57,10.57,0,0,1-14.95,0,10.43,10.43,0,0,1-3.09-7.38,10.57,10.57,0,1,1,18,7.38Zm.65-9.91a8.45,8.45,0,0,0-2.13-3.56.38.38,0,0,0-.53.53,7.7,7.7,0,0,1,1.92,3.19,1.49,1.49,0,0,0,.33,2.77,7.73,7.73,0,0,1-13.18,5L7,17.92a1,1,0,0,0-.89-1.54l-.18,0a7.7,7.7,0,0,1-.87-2.78,1.49,1.49,0,0,0,.2-2.81A7.68,7.68,0,0,1,6.57,8.07L7.9,9.4a5.87,5.87,0,0,0,2.45,8.7.53.53,0,0,0,0,.05,1.49,1.49,0,0,0,2.91.43,5.87,5.87,0,0,0,3.63-10,.38.38,0,0,0-.53.53,5.12,5.12,0,0,1-3.07,8.71,1.49,1.49,0,0,0-2.71-.45A5.12,5.12,0,0,1,8.44,9.95l2.74,2.74v0a1.49,1.49,0,1,0,1.6-1.48L7.34,5.78A1.08,1.08,0,0,0,5.81,7.31L6,7.54A8.46,8.46,0,0,0,4.5,10.7a1.49,1.49,0,0,0-.21,2.91,8.41,8.41,0,0,0,1,3.18,1,1,0,0,0-.21.61,1,1,0,0,0,1,1,1,1,0,0,0,.3,0l.32.35a8.48,8.48,0,0,0,14.47-5.52,1.49,1.49,0,0,0-.34-2.92Z"/>
        </g>
    </g>
</svg>