<svg xmlns="http://www.w3.org/2000/svg" viewBox="0 0 18.67 20.73">
    <defs>
        <style>.cls-1{fill:#252627;}</style>
    </defs>
    <title>science</title>
    <g id="Layer_2" data-name="Layer 2">
        <g id="Layer_1-2" data-name="Layer 1">
            <path class="cls-1" d="M18.21,16.3v0L13.93,9.11a10.33,10.33,0,0,1-1-4V1.79h.9V0H4.86V1.79h1v3.3a10.31,10.31,0,0,1-1,4L.5,16.24l0,0,0,0a3,3,0,0,0-.09,3,3,3,0,0,0,2.71,1.38H15.59a3,3,0,0,0,2.71-1.38A3,3,0,0,0,18.21,16.3ZM8.67,10.08,4.25,17.27h0l-1.52-.94,4.4-7.15a11,11,0,0,0,1.1-4.3V2.41H10V4.88a12.54,12.54,0,0,1-1.33,5.18Zm2,4.77a1.14,1.14,0,1,1,1.14-1.14A1.14,1.14,0,0,1,10.67,14.85Zm3.48,3.71A1.81,1.81,0,1,1,16,16.75,1.81,1.81,0,0,1,14.15,18.56Z"/>
        </g>
    </g>
</svg>