<svg xmlns="http://www.w3.org/2000/svg" viewBox="0 0 26.23 24.3">
    <style>
        .cls-1 {
        fill: #f69a12;
        }
    </style>
    <title>Asset 1</title>
    <g id="Layer_2" data-name="Layer 2">
        <g id="Layer_1-2" data-name="Layer 1">
            <path class="cls-1" d="M26.17,20.3c-.44-1.26-1.87-1.44-3.08-2S20.3,17.14,19,16.6l-1.13-.31a5.58,5.58,0,0,1-1.13-1.85l-.72-.1c0-.79.53-.83.72-1.44s0-1.22.29-1.72c.19-.34.61-.34.82-.64a2.91,2.91,0,0,0,.38-1.06,3.5,3.5,0,0,0-.08-2,1.77,1.77,0,0,1-.31-.79c-.05-.5.15-2.13.16-2.48a5,5,0,0,0-.22-1.88,2.3,2.3,0,0,0-.69-1.05l-.84-.14L15.7.66C13.6-.63,11.36.28,10.16.76,8.43,1.33,7.33,3,8.1,6.64c.13.62-.34.89-.31,1.23.07.74.08,2.51.78,2.95a1.9,1.9,0,0,0,.56.13l.2,2.16c.17.48.59.53.71,1.21l-.54.13a5.58,5.58,0,0,1-1.13,1.85l-1.13.31c-1.32.54-2.79,1.19-4.11,1.75S.5,19,.06,20.3c0,.86-.08,2.88-.06,4H11.51l.85-5.77L11.66,17l1.62-.78,1.37.76-.75,1.53,1.33,5.74h11C26.25,23.18,26.17,21.16,26.17,20.3Z"/>
        </g>
    </g>
</svg>