<svg xmlns="http://www.w3.org/2000/svg" viewBox="0 0 26.17 26.3">
    <defs>
        <style>
            .cls-1 {
            fill: #f36d27;
            }
        </style>
    </defs>
    <title>Asset 1</title>
    <g id="Layer_2" data-name="Layer 2">
        <g id="Layer_1-2" data-name="Layer 1">
            <path class="cls-1" d="M22.19,3.8V14.7l-5.65-3v3.66L8.59,11.68v4L0,11.68V26.3H26.17V3.8ZM20.81,1.51a3.46,3.46,0,0,1,2,.73,4.84,4.84,0,0,1,.6.52l.15.17,0,0h0l.15-.12,1-.8h0a5.88,5.88,0,0,0-1.09-1,5,5,0,0,0-2.94-1A5.83,5.83,0,0,0,16.7,2L17.76,3A4.33,4.33,0,0,1,20.81,1.51ZM9.56,5.17a5,5,0,0,0,2.94,1h0a5.85,5.85,0,0,0,4.1-2L15.54,3.15a4.34,4.34,0,0,1-3,1.54,3.47,3.47,0,0,1-2-.73,4.64,4.64,0,0,1-.6-.52l-.15-.16,0,0h0l-1.2.92A5.81,5.81,0,0,0,9.56,5.17Zm.11-1.95-.17.13.17-.13ZM4.54,1.51a3.47,3.47,0,0,1,2,.73,4.66,4.66,0,0,1,.6.52l.15.17,0,0h0l1.2-.92h0A5.81,5.81,0,0,0,7.48,1,5,5,0,0,0,4.54,0,5.83,5.83,0,0,0,.43,2L1.5,3A4.33,4.33,0,0,1,4.54,1.51Zm3,1.33L7.37,3h0Z"/>
        </g>
    </g>
</svg>