<svg xmlns="http://www.w3.org/2000/svg" xmlns:xlink="http://www.w3.org/1999/xlink" viewBox="0 0 16 11.92">
    <defs>
        <style>
            .cls-1 {
            fill: #2d65a2;
            }
        </style>
        <symbol id="New_Symbol_43" data-name="New Symbol 43" viewBox="0 0 16 11.92">
            <path class="cls-1" d="M15.8,8.94a2,2,0,0,0-1.28-1.16,11.49,11.49,0,0,1-1.22-.55V6.27a1.78,1.78,0,0,0,.48-1.17c.23.07.47-.34.49-.56s0-.79-.31-.73a6,6,0,0,0,.08-1,1.89,1.89,0,0,0-2-1.56,1.89,1.89,0,0,0-2,1.56,5.84,5.84,0,0,0,.08,1c-.28-.06-.33.52-.31.73s.26.63.49.56a1.78,1.78,0,0,0,.48,1.17L10,6.92c.46.25,1.66.12,1.91.51.15.23.54.84.43,4.49H16A12.29,12.29,0,0,0,15.8,8.94Z"/>
            <path class="cls-1" d="M10.78,8.6c-.33-.51-1.44-.83-2.54-1.29a12.68,12.68,0,0,1-1.36-.62V5.64a2,2,0,0,0,.54-1.31c.26.07.53-.38.54-.62s0-.88-.35-.81A6.65,6.65,0,0,0,7.7,1.74,2.1,2.1,0,0,0,5.5,0,2.1,2.1,0,0,0,3.3,1.74a6.5,6.5,0,0,0,.09,1.15C3.08,2.83,3,3.47,3,3.7s.28.7.54.62a2,2,0,0,0,.54,1.31V6.69a12.76,12.76,0,0,1-1.36.62C1.66,7.76.55,8.08.22,8.6A13.71,13.71,0,0,0,0,11.92H11A13.73,13.73,0,0,0,10.78,8.6Z"/>
        </symbol>
    </defs>
    <title>Asset 1</title>
    <g id="Layer_2" data-name="Layer 2">
        <g id="Icons">
            <use width="16" height="11.92" xlink:href="#New_Symbol_43"/>
        </g>
    </g>
</svg>