<svg xmlns="http://www.w3.org/2000/svg" width="32" height="34" viewBox="0 0 32 34">
  <defs>
    <style>
      .cls-1 {
        fill: #99c9ff;
        fill-rule: evenodd;
      }
    </style>
  </defs>
  <path class="cls-1" d="M523,1294a16.092,16.092,0,0,0-14.572,22.75,13.964,13.964,0,0,0,9.657,7.67l-0.292-.6a16.8,16.8,0,0,1-7.4-8,13.858,13.858,0,1,1,26.448-5.75,15.656,15.656,0,0,1-8.368,13.72l-0.25.66a14.845,14.845,0,0,0,10.788-14.38A16.041,16.041,0,0,0,523,1294Zm0,7.78h0.03a8.287,8.287,0,0,1,8.262,8.29,11.706,11.706,0,0,1-2.308,6.64c1.979-1.05,4.475-3.24,4.478-6.64a10.456,10.456,0,0,0-10.432-10.47H523a10.455,10.455,0,0,0-10.431,10.47c0,3.4,2.5,5.59,4.478,6.64a11.692,11.692,0,0,1-2.309-6.64A8.287,8.287,0,0,1,523,1301.78Zm0.038,10.79c-3.942,0-4.679,2.39-4.679,2.39-0.46,5.68,2.666,12.66,2.666,12.66a5.1,5.1,0,0,0,1.985.38,4.946,4.946,0,0,0,1.968-.38s3.123-6.98,2.664-12.66C527.641,1314.96,526.977,1312.57,523.037,1312.57Zm-3.564-4.72a3.526,3.526,0,1,0,3.526-3.54A3.537,3.537,0,0,0,519.473,1307.85Z" transform="translate(-507 -1294)"/>
</svg>
