<svg xmlns="http://www.w3.org/2000/svg" viewBox="0 0 26.49 18.05">
    <defs>
        <style>
            .cls-1 {
            fill: #f69a12;
            }
        </style>
    </defs>
    <title>Asset 1</title>
    <g id="Layer_2" data-name="Layer 2">
        <g id="Layer_1-2" data-name="Layer 1">
            <path class="cls-1" d="M5.77,13.08l1.16-.49,1.73-.74-.07-.16-.37-.05c0-.41.27-.43.37-.74s0-.63.15-.88.31-.18.42-.33a1.55,1.55,0,0,0,.19-.54c0-.09,0-.19,0-.29a3.54,3.54,0,0,1-.71-2.31c0-.09,0-.17,0-.24a1.22,1.22,0,0,1,.19-.72l0-.09a9.33,9.33,0,0,1-.15-.95l-.42-.07-.27-.25a3.07,3.07,0,0,0-2.84.05c-.89.29-1.45,1.55-1.06,3.41C4.22,8,4,8.14,4,8.31c0,.38,0,1.29.4,1.52a.94.94,0,0,0,.29.07L4.79,11c.09.25.3.27.37.62l-.27.07a2.84,2.84,0,0,1-.58.95l-.58.16c-.68.28-1.43.61-2.11.9S.25,14,0,14.69c0,.44,0,1.48,0,2.06H3.06v-.56c0-.4,0-.78,0-1v-.13l0-.12a2.89,2.89,0,0,1,2.09-1.65Zm20.69,1.61c-.22-.65-1-.74-1.58-1s-1.43-.62-2.11-.9l-.58-.16a2.84,2.84,0,0,1-.58-.95l-.37-.05c0-.41.27-.43.37-.74s0-.63.15-.88.31-.18.42-.33a1.55,1.55,0,0,0,.19-.54,1.78,1.78,0,0,0,0-1,.91.91,0,0,1-.16-.4c0-.26.08-1.09.08-1.28a4.92,4.92,0,0,0-.11-1.35,1.18,1.18,0,0,0-.36-.54l-.43-.07-.27-.25a3.07,3.07,0,0,0-2.84.05,1.52,1.52,0,0,0-.85.75,2,2,0,0,0,0,.28.36.36,0,0,0,0,.05l0,0c0,.05.07.13.12.23a3.19,3.19,0,0,1,.12,1.9,2.83,2.83,0,0,1-.4,1.07,1.2,1.2,0,0,1-.2.22c0,.4.12.86.36,1a.94.94,0,0,0,.29.07L17.81,11c.09.25.3.27.37.62l-.27.07-.07.16,1.74.74,1.16.5.55.2a2.89,2.89,0,0,1,2.09,1.65l0,.12v.13c0,.23,0,.61,0,1,0,.18,0,.37,0,.56h3C26.5,16.17,26.46,15.13,26.46,14.69Zm-6-.93c-1-.4-2-.87-3-1.26l-.81-.22A4,4,0,0,1,15.85,11l-.52-.07c0-.57.38-.6.52-1s0-.88.2-1.24.44-.25.59-.46a2.1,2.1,0,0,0,.27-.76,2.53,2.53,0,0,0-.06-1.45,1.28,1.28,0,0,1-.22-.56c0-.36.11-1.54.11-1.79a6.88,6.88,0,0,0-.16-1.9,1.66,1.66,0,0,0-.5-.76l-.61-.1L15.11.48a4.31,4.31,0,0,0-4,.07c-1.25.41-2,2.17-1.49,4.78.09.45-.24.64-.22.89,0,.53.06,1.81.56,2.12a1.34,1.34,0,0,0,.4.1L10.52,10c.13.34.43.38.51.87l-.38.09a4,4,0,0,1-.81,1.33L9,12.5c-.95.39-2,.86-3,1.26s-1.9.5-2.22,1.4c0,.62-.06,2.08,0,2.89H22.7c0-.81,0-2.27,0-2.89C22.34,14.26,21.3,14.13,20.44,13.76Z"/>
        </g>
    </g>
</svg>