<svg xmlns="http://www.w3.org/2000/svg" viewBox="0 0 353.89 199.31">
    <defs>
        <style>
            .cls-1 {
                fill: #ed7226;
            }
            .cls-2 {
                fill: #d9d9d9;
            }
        </style>
    </defs>
    <title>Asset 2</title>
    <g id="Layer_2" data-name="Layer 2">
        <g id="Layer_1-2" data-name="Layer 1"><path
            class="cls-1"
            d="M191.58,171.1c-.11-.87.49-1.26.85-1.75a20,20,0,0,0-10.35-31.09c-2.55-.81-2.56-.81-2.58-3.48,0-3,0-6.08,0-9.12,0-2.1.13-2.2,2.15-2.83a19.63,19.63,0,0,0,13.39-12.71,19.9,19.9,0,0,0-12.83-25.56c-2.7-.89-2.71-.89-2.72-3.63,0-3,0-6.08,0-9.12,0-2,.14-2.15,2-2.68a19.3,19.3,0,0,0,9-5.26c1.38-1.44,1.54-1.41,3.3-.41q4.17,2.37,8.31,4.81c2,1.19,2,1.22,1.52,3.63a20.07,20.07,0,0,0,13.72,23.76c2.53.81,2.54.83,2.55,3.49,0,3,0,5.92,0,8.88,0,2.32,0,2.37-2.21,3a19.41,19.41,0,0,0-7,3.61c-6.31,5.31-8.89,12.06-7,20.13s7,13.06,14.92,14.93A20,20,0,0,0,229,111.21c-.46-.15-.92-.28-1.38-.39a1.75,1.75,0,0,1-1.5-1.88c0-3.68,0-7.36,0-11,0-1.49,1-1.81,2.13-2.12A19.73,19.73,0,0,0,240,86.95a20,20,0,0,0-31.3-24.42c-1.47,1.44-1.48,1.44-3.23.44-2.84-1.63-5.7-3.25-8.52-4.92-1.72-1-1.77-1.15-1.3-3.09a21.42,21.42,0,0,0,.07-10,20.11,20.11,0,0,0-16.64-15c-2.46-.33-2.53-.39-2.53-2.8q0-12.48,0-25a9.68,9.68,0,0,1,.06-1.44c.13-.88.64-1,1.37-.59a8.39,8.39,0,0,1,.79.55C189.34,8.89,201,15,213.17,20.19a171.61,171.61,0,0,0,43.12,11.89,188.26,188.26,0,0,0,27.5,1.66,240.2,240.2,0,0,0,31.55-2.08,136.6,136.6,0,0,0,35.59-9.46c2.58-1.11,2.83-.94,2.84,1.91q0,9.12,0,18.24c0,37.27.24,74.55-.08,111.82-.09,10.77-4.15,20.35-13.26,27-5.23,3.83-11.28,5.47-17.65,6.28-10.46,1.33-20.39-.82-30.06-4.45-10.57-4-21.14-7.83-32.22-10.16a204.87,204.87,0,0,0-25.35-3.78,197,197,0,0,0-23.49-.28,116.71,116.71,0,0,0-17.6,2.11A5.08,5.08,0,0,1,191.58,171.1Z"/><path
            class="cls-2"
            d="M176,199.31a60.13,60.13,0,0,0-9.35-10.66A75.11,75.11,0,0,0,152,177.92c-14.67-8.44-30.56-13.27-47.18-16.12-14.43-2.47-29-2.8-43.5-2.18a141.38,141.38,0,0,0-32.57,5.43,182.86,182.86,0,0,0-26.57,9.69c-.29.13-.57.28-.87.4-.83.32-1.21,0-1.25-.87,0-.64,0-1.28,0-1.92Q0,92,0,11.6A5.88,5.88,0,0,1,.4,8.72C1.72,9.4,3,10,4.21,10.7a125.94,125.94,0,0,0,17,7.77,154.73,154.73,0,0,0,33.08,8.79c3.95.59,7.92,1,11.9,1.29a98,98,0,0,0,12.21.34q8.13-.33,16.27-.77c7.28-.39,14.43-1.74,21.67-2.38,8.53-.76,17-1.07,25.46,1.29a42.67,42.67,0,0,1,31.06,36.44c.66,6,.22,12,.41,18a2.24,2.24,0,0,1-2,2.5,20.9,20.9,0,0,0-9.9,6,20,20,0,0,0-.61,26.51,19.4,19.4,0,0,0,10.32,6.63c2,.48,2.14.76,2.16,2.84q.05,4.56,0,9.12c0,2-.15,2.16-2,2.77a21.7,21.7,0,0,0-9.58,5.69,1.65,1.65,0,0,1-2.34.27c-3-1.79-6.07-3.56-9.14-5.28a2.22,2.22,0,0,1-1.21-2.94c1.76-6.69.1-12.65-4.12-18a20,20,0,0,0-9.45-6.3c-2.37-.82-2.43-.83-2.45-3.38,0-2.72,0-5.44,0-8.16s0-2.67,2.49-3.57c6.46-2.36,11-6.61,13.22-13.24,4.23-12.64-5.57-26.15-18.93-26.3-8-.09-16.71,5.18-19.56,13.85a20.27,20.27,0,0,0,13,25.59c2.7.91,3,1.19,3,4.06,0,2.4.05,4.8,0,7.2-.07,2.68-.39,3.12-2.88,4-6.57,2.27-11.11,6.62-13.15,13.26-2.29,7.48-.8,14.25,4.69,19.93,6.13,6.34,13.48,7.86,21.76,5a16.84,16.84,0,0,0,6.58-4.27c1.81-1.83,2.08-1.83,4.33-.53l8.08,4.71c1.7,1,1.7,1,1.29,2.83a20.34,20.34,0,0,0,15.56,24.77l.7.15c4.26.79,4.07.41,3.88,4.9-.22,5.35-.44,10.7-.4,16.05C176.64,198.49,176.63,198.81,176,199.31Z"/></g>
    </g>
</svg>
