<svg xmlns="http://www.w3.org/2000/svg" viewBox="0 0 233.79 233.67"><defs><style>.cls-1{fill:#ed1a3a;}.cls-2{fill:#fff;}</style></defs><title>Asset 1</title><g id="Layer_2" data-name="Layer 2"><g id="svg2"><g id="layer1"><g id="g2506"><path id="path2443" class="cls-1" d="M233.79,0H0V233.67H233.79Z"/><path id="rect2493" class="cls-2" d="M196,23.28c-5.37,0-9.44,3.56-11.47,7.84L155.13,79.56c-2,4.48-3.53,9.51-3.53,12.84a19.15,19.15,0,0,0,1.5,8l31.84,76H61.29c-4.45,0-8.12-4.47-8.12-8.59V36.9C52.23,19,26.48,19,25.91,37.47l.56,139c0,15.11,11.69,27.22,26.69,27.22H221.75L180.66,98.59c-1.13-3.91-1.64-7.46,1.13-12.12L209,42.28a29.51,29.51,0,0,0,.94-5.94C209.37,28.32,203.08,22.92,196,23.28Zm-66.75.06c-6.61,0-13.22,4.61-13.22,13.56v93.72c0,13.61-18.31,12.49-18.31,0V36.9c0-17.9-26.5-17.9-26.5,0v94.47c0,21.6,16.14,36,35.41,36,19.79,0,35.88-14.36,35.88-36V36.9C142.54,27.77,135.9,23.3,129.29,23.34Z"/></g></g></g></g></svg>