<svg xmlns="http://www.w3.org/2000/svg" viewBox="0 0 59.95 85.72"><defs><style>.cls-1{fill:#3f4043;}.cls-1,.cls-2{fill-rule:evenodd;}.cls-2{fill:#c1b532;}</style></defs><title>Asset 1</title><g id="Layer_2" data-name="Layer 2"><g id="Layer_1-2" data-name="Layer 1"><polygon class="cls-1" points="0 25.06 7.48 25.06 7.48 50.41 0 43.81 0 25.06 0 25.06"/><polygon class="cls-1" points="8.94 16.71 16.12 16.71 16.12 58.62 8.94 51.72 8.94 16.71 8.94 16.71"/><polygon class="cls-1" points="17.59 8.35 24.92 8.35 24.92 48.06 17.59 48.06 17.59 8.35 17.59 8.35"/><polygon class="cls-1" points="26.38 0 34 0 34 39.86 26.38 39.86 26.38 0 26.38 0"/><polygon class="cls-1" points="35.03 7.91 42.36 7.91 42.36 48.06 35.03 48.06 35.03 7.91 35.03 7.91"/><polygon class="cls-1" points="44.12 16.55 51.3 16.55 51.3 51.58 44.12 58.62 44.12 16.55 44.12 16.55"/><polygon class="cls-1" points="52.61 24.91 59.95 24.91 59.95 43.23 52.61 50.41 52.61 24.91 52.61 24.91"/><polygon class="cls-2" points="17.59 48.95 24.92 48.95 24.92 85.72 17.59 85.72 17.59 48.95 17.59 48.95"/><polygon class="cls-2" points="26.38 41.04 33.56 41.04 33.56 85.72 26.38 85.72 26.38 41.04 26.38 41.04"/><polygon class="cls-2" points="35.03 49.09 42.36 49.09 42.36 85.72 35.03 85.72 35.03 49.09 35.03 49.09"/></g></g></svg>
