<svg id="Layer_1" data-name="Layer 1" xmlns="http://www.w3.org/2000/svg" viewBox="0 0 463.04 221.24"><defs><style>.cls-1{fill:#005cb9;}</style></defs><title>Artboard 1</title><g id="Layer_2" data-name="Layer 2"><g id="Layer_1-2" data-name="Layer 1-2"><path class="cls-1" d="M385.44,142.89H373.15c-10.41,0-11,8.39-11,13.8v49.6c0,5.41.59,13.8,11,13.8h12.29c10.36,0,11-8.39,11-13.8v-49.6c0-5.41-.64-13.8-11-13.8m-6.15,67.64a3.17,3.17,0,0,1-3.27-3.05V155.19a3.3,3.3,0,0,1,6.5,0v52.32a3.18,3.18,0,0,1-3.29,3.05"/><polyline class="cls-1" points="154.37 142.89 182.63 142.89 182.63 152.48 169.17 152.48 169.17 220.08 154.37 220.08"/><path class="cls-1" d="M201.22,191.08l2.55-38.61h.85l2.55,38.61m-22.35,29h14.51l1.38-20.51h7l1.38,20.51h14.5l-7.71-77.19h-23.3Z"/><path class="cls-1" d="M244.81,193.06v14.52a2.34,2.34,0,0,0,2.12,2.54h.2a2.44,2.44,0,0,0,2.34-2.54h0V189.64c0-2.43-.44-5.06-6-5.06h-6v-8.49h6.23c4.25,0,5.74-1,5.74-5.74V155a2.41,2.41,0,0,0-2.31-2.51h0a2.3,2.3,0,0,0-2.3,2.3q0,.1,0,.21v12.59H230v-10.9c0-5.41.64-13.8,11-13.8h12.29c10.39,0,11,8.39,11,13.8V169c0,8.37-5.59,10.68-10,10.46v.77c10-.24,10,7.7,10,10.48V206.3c0,5.39-.61,13.78-11,13.78H241c-10.38,0-11-8.39-11-13.78V193.06h14.84"/><polyline class="cls-1" points="274.04 142.89 308.37 142.89 308.37 220.08 294.55 220.08 294.55 152.48 287.87 152.48 287.87 220.08 274.04 220.08"/><path class="cls-1" d="M333.91,185.36V152.48h3.9c1.6,0,2.77,1.42,2.77,3.83v25.17c0,2.42-1.17,3.87-2.77,3.87h-3.9m-14.82,34.72h14.82V193.83h8.49c10.37,0,12-8.4,12-13.8V156.69c0-5.41-1.64-13.8-12-13.8H319.1Z"/><polyline class="cls-1" points="443.77 142.89 463.04 142.89 463.04 220.08 448.2 220.08 448.2 171.67 447.7 171.67 440.06 220.08 428.19 220.08 420.59 171.67 420.07 171.67 420.07 220.08 405.22 220.08 405.22 142.89 424.48 142.89 434.12 197.16"/><path class="cls-1" d="M124.07,39.92C119.42,19.4,107.66,2.75,106,0c-2.54,3.84-11.92,18.56-16.68,34.91a126.43,126.43,0,0,0-4.16,50.3c1.77,15.92,8.51,32.24,8.51,32.24a113.23,113.23,0,0,0,12.41,22.28c5.12-6.63,16.87-26.43,20.53-52.31,2-14.37,2.12-27-2.57-47.5m-18,94.72c-2.29-4.33-5.86-12.58-6.21-25.34-.09-12.33,4.85-22.92,6.29-25.11,1.29,2.19,5.55,11.42,6.05,24A54.06,54.06,0,0,1,106,134.64m16.69-59.89a110.8,110.8,0,0,1-2.29,21,129.34,129.34,0,0,0-2.56-29.87c-2-9.39-7.48-25-11.91-32.26C101.85,40.5,96.82,54,94.18,65.79s-2.72,26-2.72,30.21a148.17,148.17,0,0,1-2-29.28,128.16,128.16,0,0,1,4.26-26.55C99,23.39,104.86,12.69,106,11a130,130,0,0,1,12.3,28.75,127.18,127.18,0,0,1,4.42,35"/><path class="cls-1" d="M77.3,144.08v24.25a.24.24,0,0,0,.1-.11,21.69,21.69,0,0,1,30.73,30.61l-.12.11h0a.52.52,0,0,0-.12.13A43.32,43.32,0,1,1,77.3,125.18V67.3a77,77,0,1,0,56.41,129.62v-52.8H77.3"/></g></g></svg>