<?xml version="1.0" encoding="UTF-8"?>
<svg width="754px" height="958px" viewBox="0 0 754 958" version="1.1" xmlns="http://www.w3.org/2000/svg" xmlns:xlink="http://www.w3.org/1999/xlink">
    <!-- Generator: Sketch 40.1 (33804) - http://www.bohemiancoding.com/sketch -->
    <title>Group</title>
    <desc>Created with Sketch.</desc>
    <defs></defs>
    <g id="Page-1" stroke="none" stroke-width="1" fill="none" fill-rule="evenodd">
        <g id="Group" transform="translate(1.000000, 0.000000)">
            <path d="M-0.140625,0.46875 L-0.140625,957.937308 L221.460434,957.937308 L221.460434,739.475055 C221.460434,739.475055 178.63263,720.617518 149.257812,660.113281 C135.589844,631.960937 116.183593,575.92578 129.109375,510.625 C142.035156,445.324219 218.835938,323.719177 218.835938,323.719177 L218.835938,0.46875 L-0.140625,0.46875 Z" id="Path-1" fill="#87C062"></path>
            <path d="M530.859375,0.46875 L530.859375,957.937308 L752.460434,957.937308 L752.460434,739.475055 C752.460434,739.475055 709.63263,720.617518 680.257812,660.113281 C666.589844,631.960937 647.183593,575.92578 660.109375,510.625 C673.035156,445.324219 749.835938,323.719177 749.835938,323.719177 L749.835938,0.46875 L530.859375,0.46875 Z" id="Path-1" fill="#87C062" transform="translate(641.500000, 479.000000) scale(-1, 1) translate(-641.500000, -479.000000) "></path>
            <path d="M376.5,139.684997 C376.303505,139.417446 376.203125,139.28125 376.203125,139.28125 L376.203125,140.089552 C363.595251,157.282854 154.421879,443.973712 154.421875,539.671875 C154.421875,590.161532 159.460937,648.257815 222.796875,709.523438 C283.142842,767.896827 368.297617,770.652525 376.203125,770.782617 C376.203125,770.789062 376.303533,770.789062 376.5,770.786805 C376.696467,770.789062 376.796875,770.789062 376.796875,770.789062 C384.702383,770.652525 469.857158,767.896827 530.203125,709.523438 C593.539063,648.257815 598.578125,590.161532 598.578125,539.671875 C598.578121,443.973712 389.404749,157.282854 376.796875,140.089552 L376.796875,139.28125 C376.796875,139.28125 376.696495,139.417446 376.5,139.684997 Z" id="Path-3" fill="#000000"></path>
            <path d="M472.847656,357.5 C484.368683,361.851563 539.551406,490.521039 530.085938,581.816412 C520.620471,673.111786 445.826172,706.289053 423.8125,706.289062 C401.798828,706.289071 394.603515,700.300772 394.603516,684.371084 C394.603516,668.441397 470.632816,650.03516 483.078125,591.695312 C495.523438,533.355469 488.203125,482.087887 478.955078,449.367186 C469.70703,416.646488 448.236328,382.257813 450.236328,370.072266 C452.236328,357.886719 461.32663,353.148436 472.847656,357.5 Z" id="Path-5" fill="#FFFFFF"></path>
        </g>
    </g>
</svg>