<svg xmlns="http://www.w3.org/2000/svg" viewBox="0 0 248.58 161.84"><defs><style>.cls-1{fill:#294189;}.cls-2{fill:#5bb6d7;}</style></defs><title>Asset 1</title><g id="Layer_2" data-name="Layer 2"><g id="svg2"><g id="layer1"><g id="g2438"><path id="path8" class="cls-1" d="M43.22,108.92v52.92h76V108.92Z"/><path id="path10" class="cls-1" d="M43.22,0V52.94h76V0Z"/><path id="path12" class="cls-1" d="M129.33,0V52.94h76V0Z"/><path id="path14" class="cls-1" d="M129.33,108.92v52.92h76V108.92Z"/><path id="path18" class="cls-2" d="M223.87,104.65c-6.87,13.15-22,14.24-39.62,14.24l-152.46,0c-9.74,0-21.67.11-31.8,4.44,1-2.52,2-5.38,3.21-8.48,6.75-13.1,21.1-14.14,39.23-14.14l152.46-.05c9.4,0,21.67,0,32.08-4.56-1.46,4.14-3,8.15-3.1,8.52"/><path id="path22" class="cls-2" d="M234.62,75.82C227.81,89,212.68,90.08,195,90.08l-152.4,0c-9.79,0-21.67.07-31.8,4.42,1-2.54,2-5.37,3.15-8.49H14C20.77,73,35.12,71.91,53.24,71.91l152.46,0c9.34,0,21.67,0,32.08-4.59-1.52,4.15-3,8.19-3.15,8.53"/><path id="path26" class="cls-2" d="M245.43,47c-6.87,13.17-21.95,14.26-39.62,14.26l-152.46,0c-9.74,0-21.67.09-31.8,4.45,1-2.52,2-5.39,3.21-8.48h.06C31.52,44.13,45.87,43.1,64,43.1L216.45,43c9.4,0,21.67,0,32.13-4.56-1.52,4.15-3,8.14-3.15,8.5"/></g></g></g></g></svg>