<svg xmlns="http://www.w3.org/2000/svg" viewBox="0 0 463.04 221.24"><defs><style>.cls-1{fill:#005cb9;}</style></defs><title>Asset 2</title><g id="Layer_2" data-name="Layer 2"><g id="Layer_1-2" data-name="Layer 1"><path class="cls-1" d="M385.44,66.89H373.15c-10.41,0-11,8.39-11,13.8v49.6c0,5.41.59,13.8,11,13.8h12.29c10.36,0,11-8.39,11-13.8V80.69c0-5.41-.64-13.8-11-13.8m-6.15,67.64a3.17,3.17,0,0,1-3.27-3.05V79.38l0-.19a3.3,3.3,0,0,1,6.5,0l0,.19v52s0,.09,0,.13a3.18,3.18,0,0,1-3.29,3.05"/><polyline class="cls-1" points="154.37 66.89 182.63 66.89 182.63 76.48 169.17 76.48 169.17 144.08 154.37 144.08"/><path class="cls-1" d="M201.22,115.08l2.55-38.61h.85l2.55,38.61m-22.35,29h14.51l1.38-20.51h7l1.38,20.51h14.5l-7.71-77.19h-23.3Z"/><path class="cls-1" d="M244.81,117.06v14.52a2.34,2.34,0,0,0,2.32,2.55,2.44,2.44,0,0,0,2.34-2.55V113.64c0-2.43-.44-5.06-6-5.06h-6v-8.49h6.23c4.25,0,5.74-1,5.74-5.74V79a2.41,2.41,0,0,0-2.34-2.51A2.3,2.3,0,0,0,244.81,79V91.59H230V80.69c0-5.41.64-13.8,11-13.8h12.29c10.39,0,11,8.39,11,13.8V93c0,8.37-5.59,10.68-10,10.46v.77c10-.24,10,7.7,10,10.48V130.3c0,5.39-.61,13.78-11,13.78H241c-10.38,0-11-8.39-11-13.78V117.06h14.84"/><polyline class="cls-1" points="274.04 66.89 308.37 66.89 308.37 144.08 294.55 144.08 294.55 76.48 287.87 76.48 287.87 144.08 274.04 144.08"/><path class="cls-1" d="M333.91,109.36V76.48h3.9c1.6,0,2.77,1.42,2.77,3.83v25.17c0,2.42-1.17,3.87-2.77,3.87h-3.9m-14.82,34.72h14.82V117.83h8.49c10.37,0,12-8.4,12-13.8V80.69c0-5.41-1.64-13.8-12-13.8h-23.3Z"/><polyline class="cls-1" points="443.77 66.89 463.04 66.89 463.04 144.08 448.2 144.08 448.2 95.67 447.7 95.67 440.06 144.08 428.19 144.08 420.59 95.67 420.07 95.67 420.07 144.08 405.22 144.08 405.22 66.89 424.48 66.89 434.12 121.16"/><path class="cls-1" d="M124.07,39.92C119.42,19.4,107.66,2.75,106,0c-2.54,3.84-11.92,18.56-16.68,34.91a126.43,126.43,0,0,0-4.16,50.3c1.77,15.92,8.51,32.24,8.51,32.24a113.23,113.23,0,0,0,12.41,22.28c5.12-6.63,16.87-26.43,20.53-52.31,2-14.37,2.12-27-2.57-47.5m-18,94.72c-2.29-4.33-5.86-12.58-6.21-25.34-.09-12.33,4.85-22.92,6.29-25.11,1.29,2.19,5.55,11.42,6.05,24A54.06,54.06,0,0,1,106,134.64m16.69-59.89a110.8,110.8,0,0,1-2.29,21,129.34,129.34,0,0,0-2.56-29.87c-2-9.39-7.48-25-11.91-32.26-4.08,6.88-9.11,20.43-11.75,32.17s-2.72,26-2.72,30.21a148.17,148.17,0,0,1-2-29.28,128.16,128.16,0,0,1,4.26-26.55C99,23.39,104.86,12.69,106,11A130,130,0,0,1,118.3,39.75a127.18,127.18,0,0,1,4.42,35"/><path class="cls-1" d="M77.3,144.08v24.25a.24.24,0,0,0,.1-.11,21.69,21.69,0,0,1,30.73,30.61l-.12.11h0s-.09.07-.12.13A43.32,43.32,0,1,1,77.3,125.18V67.3c-42.67,0-77.3,34.47-77.3,77a77.36,77.36,0,0,0,133.71,52.62v-52.8H77.3"/><path class="cls-1" d="M439.09,197h-1.73v8.75h1.73c1.77,0,2.3-.44,2.3-2.36v-4c0-1.92-.53-2.35-2.3-2.35M301.3,189v10.73c0,2,.63,2.41,2.37,2.41h1.27v-15.6h-1.27c-1.73,0-2.37.5-2.37,2.46m12.44-2.46h-1.21v15.6h1.21c1.75,0,2.37-.48,2.37-2.45V188.92c0-2-.61-2.36-2.37-2.36M463,221.24V169.79H154.37v51.45Zm-275.18-9.61H180V197h-4v14.64h-7.83V178.14H176v12.94h4V178.14h7.82Zm64.91-27.17h-10.7v6.61h9.58v6.35h-9.58v7.9h10.7v6.35H234V178.12h18.79Zm70.95,15.24c0,6.79-3.49,8.63-11.19,8.63v3.29h-7.6v-3.29c-7.73,0-11.23-1.84-11.23-8.63V189.24c0-6.84,3.36-8.57,11.23-8.57v-2.53h7.6v2.53c7.84,0,11.19,1.73,11.19,8.57Zm60.19-15.24h-6v27.21h-7.4V184.47h-6.38v-6.34h19.74ZM449.22,203c0,7.36-3.36,8.62-11.87,8.62h-7.83V178.14h7.83v12.94h1.31c7.68,0,10.56,1.77,10.56,8.5Z"/></g></g></svg>
