<svg xmlns="http://www.w3.org/2000/svg" viewBox="0 0 502 214.26"><defs><style>.cls-1{fill:#f68b1f;stroke:#f68b1f;stroke-linejoin:round;}</style></defs><title>Asset 1</title><g id="Layer_2" data-name="Layer 2"><g id="Layer_1-2" data-name="Layer 1"><path class="cls-1" d="M301.91,140.75c-4.16,5.65-13.85,12.66-31,12.66-24.73,0-44.74-21.53-44.74-48.14A44.5,44.5,0,0,1,270.94,61a45.69,45.69,0,0,1,31,12.43l40.46-42.72C334.91,20.73,310.42.83,270.94.83,214.47.83,168.78,48.46,168.78,107.3s45.69,106.46,102.16,106.46c38.11,0,61.48-18.31,71.43-30.51Z"/><polygon class="cls-1" points="405.44 107.3 501.5 207.66 412.67 207.66 315.02 107.3 412.67 6.26 496.31 6.26 405.44 107.3"/><path class="cls-1" d="M133.63,140.41c-4.16,5.65-13.85,12.65-31,12.65-24.74,0-44.75-21.53-44.75-48.14a44.5,44.5,0,0,1,44.75-44.31,45.65,45.65,0,0,1,31,12.44l40.46-42.73C166.64,20.39,142.15.5,102.67.5,46.2.5.5,48.11.5,107S46.2,213.42,102.67,213.42c38.1,0,61.48-18.31,71.43-30.51Z"/></g></g></svg>