<?xml version="1.0" encoding="UTF-8"?>
<svg viewBox="0 0 735 994" version="1.1" xmlns="http://www.w3.org/2000/svg" xmlns:xlink="http://www.w3.org/1999/xlink">
    <!-- Generator: Sketch 42 (36781) - http://www.bohemiancoding.com/sketch -->
    <title>Group</title>
    <desc>Created with Sketch.</desc>
    <defs></defs>
    <g id="Page-1" stroke="none" stroke-width="1" fill="none" fill-rule="evenodd">
        <g id="Desktop" transform="translate(-136.000000, -12.000000)" fill="#3F847F">
            <g id="Group" transform="translate(21.000000, 12.000000)">
                <polygon id="Path" points="401.028659 585.905322 732.867533 585.905322 732.867533 164.656364"></polygon>
                <path d="M740.212891,137.59375 C740.212891,137.59375 764.868023,108.511719 797.748465,103.509766 C830.628906,98.5078125 849.881781,128.48567 849.881781,128.48567 L849.881781,0.52550117 C849.881781,0.52550117 790.619141,28.078125 762.347656,64.9472656 C734.076172,101.816406 740.212891,137.59375 740.212891,137.59375 Z" id="Path-2"></path>
                <path d="M616.387055,317.733116 C574.322145,300.500302 528.270529,291 480,291 C281.17749,291 120,452.17749 120,651 C120,849.82251 281.17749,1011 480,1011 C588.275756,1011 685.387022,963.199137 751.38218,887.549031 C687.834762,954.065168 598.256193,995.5 499,995.5 C306.252622,995.5 150,839.247378 150,646.5 C150,453.752622 306.252622,297.5 499,297.5 C540.184639,297.5 579.703089,304.633799 616.387079,317.733124 Z" id="Combined-Shape" stroke="#979797" transform="translate(435.691090, 651.000000) rotate(-24.000000) translate(-435.691090, -651.000000) "></path>
            </g>
        </g>
    </g>
</svg>
