<svg xmlns="http://www.w3.org/2000/svg" viewBox="0 0 290 143.3"><defs><style>.cls-1{fill:#aa404f;}.cls-2{fill:#595651;}</style></defs><title>Asset 1</title><g id="Layer_2" data-name="Layer 2"><g id="logo"><path class="cls-1" d="M116.8,103.9c2.7,0,5-3.1,5.1-6.9V48c-.1-3.8-2.3-6.9-5.1-6.9s-5,3.1-5.1,6.9V97C111.8,100.8,114,103.9,116.8,103.9Zm-.2,2.8c-9.3,0-14.9-8.3-15.3-19.3V74.6l-25,68.1h35.6l14.7-40.1a13.43,13.43,0,0,1-9.7,4h-.3Zm15.6-19.5L164.2,0H128.6L114.5,38.4a13.55,13.55,0,0,1,2-.2h.2c9.5,0,15.1,10.5,15.4,21.6V87C132.3,87.1,132.3,87.2,132.2,87.2Zm62.3,47.3h-5.6v-5.2h-2.1v13.5h2.1v-6.3h5.6v6.3h2.2V129.3h-2.2ZM176,129a7,7,0,0,0,0,14,7,7,0,0,0,0-14Zm0,12.2a4.81,4.81,0,0,1-4.8-5.1c0-3,1.9-5.1,4.8-5.1s4.8,2.1,4.8,5.1A4.81,4.81,0,0,1,176,141.2Zm-11.6-11.9-5,5.3v-5.3h-2.2v13.5h2.2v-6.5l5,6.5h2.7l-6-7.5,6-6Zm38.2,1.5a7,7,0,0,0-2.2,5.2,6.42,6.42,0,0,0,2.2,5.1,6.91,6.91,0,0,0,4.8,1.9,6.62,6.62,0,0,0,3.7-1.1v-2.5a5.25,5.25,0,0,1-3.7,1.7c-2.9,0-4.8-2.2-4.8-5.1s1.9-5.1,4.8-5.1a5.24,5.24,0,0,1,3.7,1.5v-2.5a6.56,6.56,0,0,0-3.7-1A7.27,7.27,0,0,0,202.6,130.8Zm53.1-1.5h-2.2v14l9.2-9.6v9.1h2.1V128.6l-9,9.8v-9.1Zm21.2,5.2h-5.7v-5.2h-2v13.5h2v-6.3h5.7v6.3h2V129.3h-2Zm6.5-5.2v13.5h2V131.2H290v-1.9Zm-52.8,8c0,1.1,0,2.6-.7,3.2a1.84,1.84,0,0,1-1.2.5c-.3,0-.5-.1-.7-.1v2c.3,0,.5.1,1,.1a3.29,3.29,0,0,0,2.3-.8c1.4-1.1,1.4-2.6,1.4-4.1v-6.7h4.5V143h2.1V129.5h-8.6v7.8Zm-17.3,5.5h2.4l1.4-3.3h5.7l1.4,3.3h2.3l-6.4-14.3Zm4.5-5.2,2.1-4.5h.1l1.9,4.5Zm24.5-6.4h3.1v11.6h2.1V131.2h3v-1.9h-8.2Z"/><path class="cls-2" d="M279.4,39.9l-10.8,40v-40H252.1v3.8H255a3.1,3.1,0,0,1,2.4,1,3.25,3.25,0,0,1,1,2.4v58.7h6.4l14.6-52.6v52.6H290V39.9ZM47.7,43.7h2.6a3.1,3.1,0,0,1,2.4,1,3.25,3.25,0,0,1,1,2.4v58.7H64.3V39.9H47.7ZM15.6,38.5H4.5S1.4,44.1,0,57H3.2c2-12.9,6.9-15.1,11.6-15.1,4,0,6.4,3.6,6.5,7.4V70.2H17.7c-2.4,0-3.3-1.6-4.4-10.1H10.4V82.9h2.9c1.1-8.5,2-9.2,4.4-9.2h3.6v22c0,4.6-3.1,7.2-6.5,7.2s-8.1-2-10.7-12.4H.7c2.4,12.2,7.6,16,14.5,16h.5c7.8,0,16.1-6.7,16.1-21.5V61.4C31.7,47.3,24,38.5,15.6,38.5Zm137.7,5.2h.5a3.1,3.1,0,0,1,2.4,1,3.25,3.25,0,0,1,1,2.4v58.7h10.6V43.7h9.1v62.1h10.6V47.1a3.1,3.1,0,0,1,1-2.4,3.25,3.25,0,0,1,2.4-1h.5V39.9h-38v3.8Zm71,59.3c-3.4,0-6.5-2.6-6.5-7.2V49.4c.1-3.8,2.5-7.4,6.5-7.4,5.8,0,10.2,3.6,12.2,15.5h3.4c-2.2-12.2-5.9-18.9-5.9-18.9H223.5c-9.3,0-16.1,8.8-16.1,23V85.2c0,13.8,7.7,21.5,16.1,21.5h.4c9.5,0,15.7-7.5,17.2-23.8h-3.8C235.7,101.8,228.1,103,224.3,103ZM84.1,39.9h-5L64.4,73.4l11.3,32.4H86.3L72.2,66.7Z"/></g></g></svg>