<?xml version="1.0" encoding="UTF-8"?>
<svg width="278px" height="278px" viewBox="0 0 278 278" version="1.1" xmlns="http://www.w3.org/2000/svg" xmlns:xlink="http://www.w3.org/1999/xlink">
    <!-- Generator: Sketch 42 (36781) - http://www.bohemiancoding.com/sketch -->
    <title>Combined Shape</title>
    <desc>Created with Sketch.</desc>
    <defs></defs>
    <g id="Page-1" stroke="none" stroke-width="1" fill="none" fill-rule="evenodd">
        <path d="M39.3664608,214.160156 C62.0218163,243.845673 97.7740418,263 138,263 C178.225958,263 213.978184,243.845673 236.633539,214.160156 L217.117188,214.160156 L139.535156,78.75 L90.9003906,168.210938 L129.453125,168.210938 L116.644531,135.78125 L158.308594,135.78125 L202.589844,214.160156 L39.3664608,214.160156 Z M24.1010389,188.100694 L124.304237,15.7477511 C62.2654352,22.5641274 14,75.1455655 14,139 C14,156.442376 17.6013504,173.043611 24.1010389,188.100694 Z M152.828024,15.8774079 L252.278581,187.211708 C258.538728,172.39116 262,156.099792 262,139 C262,75.5345614 214.320832,23.2051892 152.828031,15.8774199 Z M139,278 C62.2324198,278 0,215.76758 0,139 C0,62.2324198 62.2324198,0 139,0 C215.76758,0 278,62.2324198 278,139 C278,215.76758 215.76758,278 139,278 Z" id="Combined-Shape" fill="#007A7D"></path>
    </g>
</svg>