<svg xmlns="http://www.w3.org/2000/svg" viewBox="0 0 367.9 205.4"><defs><style>.cls-1{fill:#259cd4;}.cls-2{fill:#ed6827;}</style></defs><title>Asset 1</title><g id="Layer_2" data-name="Layer 2"><g id="svg2"><g id="g10"><g id="g3031"><path id="path14" class="cls-1" d="M0,155.43v50H26.88l38.87-41.2v41.2H81.82v-50H55.52L16.07,195.17V155.43Z"/><path id="path18" class="cls-1" d="M102,155.43v50h15.78V166.24h38.87V155.43Z"/><g id="g28"><path id="path30" class="cls-1" d="M260.36,205.4v-50h28.93l21,39.16,21.92-39.16H360.3v50H346s.88-42.08,0-41.2-24,41.2-24,41.2H301l-24.25-40.91V205.4Z"/></g><g id="g32"><path id="path34" class="cls-1" d="M226.47,176.47c-.88,4.67-9.64,3.92-9.64,3.92H191.69V165.66h27.76a6.74,6.74,0,0,1,7,4.38Zm-2.92-21h-47v50h14.9V190.79h35.07s14.32.29,15.49-13.44v-9.94s-2.63-12.86-18.41-12"/></g><g id="g36"><path id="path38" class="cls-1" d="M362.46,38.69H340.84l-6.23,4.87V40.06l6.23-5.26h21.63Zm0,10.52H340.64l-6,3.7V49.6l6-4.09h21.82Zm0,10.13H341.23l-6.62,3.9v-3.9l6-3.7h21.82Zm0,9.94H341.62l-7,3.7V68.79l6.23-3.21h21.63Zm0,12.47H340.64l-6,1V78.63l6-2.34h21.82Zm-1,9.55H334.6V87.79h26.89Zm0,10.33H334.6V97.53h26.89ZM303.63,79.51l-9.55,3.21V79.51l9.55-4.19Zm0,7.11-9.55,3.9v-3.9l9.55-3.9Zm0,8.18-9.55,2.73V94.22l9.55-3.7Zm-9.55,9.94-.5-3,9.55-2,.5,3.88Zm69.73-75V24.52H340.14L323.19,34.75v6.14h-2.92V68.79H302.74l-14.9,8.33v35.94H367.9V29.78Z"/></g><g id="g40"><path id="path42" class="cls-1" d="M12,34.8H33.58l6.23,5.26v3.51L33.58,38.7H12Zm0,10.71H33.77l6,4.09v3.31l-6-3.7H12Zm0,10.13H33.77l6,3.7v3.9l-6.62-3.9H12Zm0,9.94H33.58l6.23,3.21V73l-7-3.7H12Zm0,10.71H33.77l6,2.34v4.09l-6-1H12Zm1,11.49H39.81V91.3H12.92Zm0,9.74H39.81v4.09H12.92ZM70.79,75.32l9.55,4.19v3.22l-9.55-3.22Zm0,7.4,9.55,3.9v3.9l-9.55-3.9Zm0,7.79,9.55,3.7v3.31L70.79,94.8Zm0,13,.5-3.88,9.55,2-.5,3ZM6.51,29.78v83.28H86.58V77.12l-14.9-8.33H54.14V40.88H51.22V34.75L34.27,24.52H10.6v5.26Z"/></g><g id="g44"><path id="path46" class="cls-2" d="M242.06,21.75H255.5s16,2.73,20.26,20.85V67.53s-3.53-18.71-14.66-23.07a3,3,0,0,0-4,3.27c1.73,11,7.54,42.14,21.81,71.62,0,0-26.11-29.42-33.9-29.81s-7,39-7,39-14.42-38-1-78.12c0,0,3-8.5-2.71-6.45a8.47,8.47,0,0,0-4.17,3.31L221,60.9s2.34-36.82,21-39.16"/></g><g id="g48"><path id="path50" class="cls-2" d="M252.9,11.34c-1.32,5-5.89,8.12-10.2,7s-6.75-6.11-5.43-11.1,5.88-8.12,10.2-7,6.75,6.11,5.43,11.1"/></g><g id="g52"><path id="path54" class="cls-2" d="M129.85,24H116.4s-16,2.73-20.26,20.85V69.83s3.53-18.71,14.66-23.07a3,3,0,0,1,4,3.27c-1.73,11-7.54,42.14-21.81,71.62,0,0,26.11-29.42,33.9-29.81s7,39,7,39,14.42-38,1-78.12c0,0-3-8.5,2.71-6.45a8.47,8.47,0,0,1,4.17,3.31l9.09,13.66s-2.34-36.82-21-39.16"/></g><g id="g56"><path id="path58" class="cls-2" d="M119,13.64c1.32,5,5.89,8.12,10.2,7s6.75-6.11,5.43-11.1-5.88-8.12-10.2-7-6.75,6.11-5.43,11.1"/></g><g id="g60"><path id="path62" class="cls-2" d="M153,68.79s19.29,19.78,19.87,23.87-5.65,40.72-5.65,40.72,9.55-19.87,16.66-19.09,23.47,17.92,23.47,17.92S193,104.54,195.7,97.53s15.78-28.74,15.78-28.74S193.16,82.72,185,81.17s-32-13.25-32-13.25"/></g><g id="g64"><path id="path66" class="cls-2" d="M190.29,65.92c1.22,4.91-1.39,9.78-5.83,10.88s-9-2-10.24-6.89S175.6,60.14,180,59s9,2,10.25,6.89"/></g></g></g></g></g></svg>