<?xml version="1.0" encoding="UTF-8" standalone="no"?>
<!-- Generator: Adobe Illustrator 13.0.0, SVG Export Plug-In . SVG Version: 6.00 Build 14948)  -->
<svg
   xmlns:dc="http://purl.org/dc/elements/1.1/"
   xmlns:cc="http://creativecommons.org/ns#"
   xmlns:rdf="http://www.w3.org/1999/02/22-rdf-syntax-ns#"
   xmlns:svg="http://www.w3.org/2000/svg"
   xmlns="http://www.w3.org/2000/svg"
   xmlns:sodipodi="http://sodipodi.sourceforge.net/DTD/sodipodi-0.dtd"
   xmlns:inkscape="http://www.inkscape.org/namespaces/inkscape"
   version="1.0"
   baseProfile="tiny"
   id="Layer_1"
   x="0px"
   y="0px"
   width="455"
   height="370"
   viewBox="0 0 421.756 421.756"
   xml:space="preserve"
   sodipodi:version="0.32"
   inkscape:version="0.45+0.46pre0+devel"
   sodipodi:docname="TNK-BP.svg"
   inkscape:output_extension="org.inkscape.output.svg.inkscape"><metadata
   id="metadata154"><rdf:RDF><cc:Work
       rdf:about=""><dc:format></dc:format><dc:type
         rdf:resource="" /><dc:title></dc:title><dc:date></dc:date><dc:creator><cc:Agent><dc:title></dc:title></cc:Agent></dc:creator><dc:rights><cc:Agent><dc:title></dc:title></cc:Agent></dc:rights><dc:publisher><cc:Agent><dc:title></dc:title></cc:Agent></dc:publisher><dc:identifier></dc:identifier><dc:source></dc:source><dc:relation></dc:relation><dc:language></dc:language><dc:subject><rdf:Bag /></dc:subject><dc:coverage></dc:coverage><dc:description></dc:description><dc:contributor><cc:Agent><dc:title></dc:title></cc:Agent></dc:contributor><cc:license
         rdf:resource="" /></cc:Work></rdf:RDF></metadata><defs
   id="defs152"><inkscape:perspective
   sodipodi:type="inkscape:persp3d"
   inkscape:vp_x="-50 : 600 : 1"
   inkscape:vp_y="0 : 1000 : 0"
   inkscape:vp_z="700 : 600 : 1"
   inkscape:persp3d-origin="300 : 400 : 1"
   id="perspective156" />
	
	
	
	
	
	
	
	
	
	
	
	
	
	
	
	
	
	
	
	
	
	
	
	
	
	
	
	
	
	
	
	
	
	
	
	
	
	
	
	
	
	
	
	
	
	
	
	
	
	
	
	
	
	
	
	
	
	
	
	
	
	
	
	
	
	
	
	
	
	
	
	
	
</defs><sodipodi:namedview
   inkscape:window-height="944"
   inkscape:window-width="1280"
   inkscape:pageshadow="2"
   inkscape:pageopacity="0.0"
   guidetolerance="10.0"
   gridtolerance="10.0"
   objecttolerance="10.0"
   borderopacity="1.0"
   bordercolor="#666666"
   pagecolor="#ffffff"
   id="base"
   showgrid="false"
   inkscape:zoom="1.0954201"
   inkscape:cx="240.83562"
   inkscape:cy="248.23289"
   inkscape:window-x="-8"
   inkscape:window-y="-8"
   inkscape:current-layer="Layer_1" />
<g
   id="g2607"
   transform="matrix(1.3248911,0,0,1.3248911,-68.847385,-66.674681)"><path
     d="M 394.164,314.624 C 394.164,338.448 374.796,357.812 350.984,357.812 L 27.576,357.812 L 27.576,150.137 L 394.164,150.137 L 394.164,314.624 L 394.164,314.624 z"
     id="path7"
     style="fill:#ffffff" /><path
     d="M 70.762,54.978 C 41.958,54.978 18.607,78.328 18.607,107.129 L 18.607,366.779 L 350.984,366.779 C 379.795,366.779 403.149,343.444 403.149,314.624 L 403.149,54.978 L 70.762,54.978 L 70.762,54.978 z M 394.164,314.624 C 394.164,338.448 374.796,357.812 350.984,357.812 L 27.576,357.812 L 27.576,150.137 L 394.164,150.137 L 394.164,314.624 L 394.164,314.624 z"
     id="path9"
     style="fill:#939ba1" /><path
     d="M 337.842,190.32 C 337.842,193.727 336.636,198.44 331.81,198.44 C 325.991,198.44 325.991,191.899 325.991,190.53 C 325.991,189.192 325.991,182.217 331.979,182.217 C 337.438,182.217 337.842,188.236 337.842,190.32 L 337.842,190.32 z M 326.071,172.1 L 322.169,172.1 L 322.169,197.228 L 322.081,200.982 L 325.856,200.982 L 325.95,197.813 C 326.347,198.439 326.816,199.139 327.982,199.932 C 329.777,201.143 331.642,201.265 332.638,201.265 C 335.512,201.265 338.313,200.055 339.96,197.68 C 340.999,196.317 341.962,194.103 341.962,190.074 C 341.962,185.49 340.548,183.412 339.512,182.217 C 337.606,180.049 334.965,179.539 332.886,179.539 C 328.151,179.539 326.606,182.169 326.071,183.117 L 326.071,172.1 L 326.071,172.1 z"
     id="path11"
     style="fill:#00a651" /><path
     d="M 348.702,191.156 C 348.702,189.282 348.702,182.659 354.944,182.659 C 359.556,182.659 360.683,186.57 360.683,190.32 C 360.683,191.824 360.478,194.814 358.982,196.856 C 357.647,198.688 355.561,198.895 354.568,198.895 C 349.087,198.895 348.702,193.688 348.702,191.156 L 348.702,191.156 z M 344.957,209.006 L 348.822,209.006 L 348.822,198.643 C 349.955,200.475 352.204,201.766 355.237,201.766 C 360.229,201.766 364.764,198.359 364.764,190.567 C 364.764,182.829 360.478,179.755 355.989,179.755 C 354.277,179.755 350.831,180.248 348.865,183.541 L 348.79,180.083 L 344.837,180.083 C 344.921,182.079 344.957,182.581 344.957,183.51 L 344.957,209.006 L 344.957,209.006 z"
     id="path13"
     style="fill:#00a651" /><path
     d="M 313.936,223.412 C 310.992,216.435 307.384,211.142 305.944,208.981 C 304.515,211.142 300.887,216.435 297.951,223.412 C 300.836,226.51 303.674,230.158 305.944,234.314 C 308.203,230.158 311.06,226.51 313.936,223.412 L 313.936,223.412 z"
     id="path15"
     style="fill:#00a651" /><path
     d="M 297.95,314.001 C 300.887,320.963 304.514,326.27 305.943,328.419 C 307.383,326.27 310.991,320.972 313.935,314.001 C 311.059,310.903 308.203,307.238 305.943,303.104 C 303.673,307.238 300.835,310.903 297.95,314.001 L 297.95,314.001 z"
     id="path17"
     style="fill:#00a651" /><path
     d="M 297.95,223.412 C 292.806,217.867 287.598,214.128 285.523,212.594 C 284.897,215.105 283.326,221.314 282.939,228.878 C 286.696,230.81 290.627,233.271 294.172,236.389 C 294.897,231.72 296.314,227.312 297.95,223.412 L 297.95,223.412 z"
     id="path19"
     style="fill:#00a651" /><path
     d="M 313.936,314.001 C 319.07,319.542 324.295,323.272 326.37,324.805 C 326.981,322.304 328.568,316.085 328.946,308.536 C 325.185,306.607 321.258,304.142 317.711,301.023 C 316.995,305.691 315.574,310.102 313.936,314.001 L 313.936,314.001 z"
     id="path21"
     style="fill:#00a651" /><path
     d="M 282.939,228.878 C 276.237,225.432 270.046,223.683 267.567,222.955 C 267.855,225.53 268.49,231.925 270.712,239.143 C 274.912,239.658 279.444,240.644 283.826,242.341 C 282.892,237.73 282.732,233.094 282.939,228.878 L 282.939,228.878 z"
     id="path23"
     style="fill:#00a651" /><path
     d="M 328.945,308.536 C 335.664,311.982 341.852,313.722 344.34,314.451 C 344.054,311.89 343.397,305.489 341.18,298.263 C 337,297.742 332.463,296.754 328.064,295.036 C 328.983,299.675 329.157,304.322 328.945,308.536 L 328.945,308.536 z"
     id="path25"
     style="fill:#00a651" /><path
     d="M 276.153,251.525 C 273.7,247.465 271.967,243.177 270.712,239.144 C 263.21,238.21 256.818,238.703 254.231,238.863 C 255.374,241.172 258.171,246.952 262.713,252.979 C 266.854,252.029 271.438,251.396 276.153,251.525 L 276.153,251.525 z"
     id="path27"
     style="fill:#00a651" /><path
     d="M 335.745,285.899 C 338.209,289.946 339.946,294.245 341.18,298.262 C 348.682,299.196 355.089,298.705 357.666,298.556 C 356.522,296.231 353.732,290.45 349.175,284.431 C 345.062,285.358 340.462,286.005 335.745,285.899 L 335.745,285.899 z"
     id="path29"
     style="fill:#00a651" /><path
     d="M 262.713,252.979 C 255.363,254.665 249.495,257.306 247.132,258.354 C 248.997,260.124 253.614,264.59 259.952,268.682 C 263.482,266.419 267.59,264.232 272.07,262.729 C 268.378,259.787 265.272,256.359 262.713,252.979 L 262.713,252.979 z"
     id="path31"
     style="fill:#00a651" /><path
     d="M 351.949,268.682 C 348.401,270.977 344.303,273.157 339.82,274.664 C 343.514,277.621 346.632,281.056 349.174,284.432 C 356.533,282.744 362.404,280.099 364.764,279.058 C 362.896,277.295 358.287,272.78 351.949,268.682 L 351.949,268.682 z"
     id="path33"
     style="fill:#00a651" /><path
     d="M 272.07,274.664 C 267.59,273.156 263.482,270.976 259.952,268.682 C 253.614,272.781 248.997,277.295 247.132,279.058 C 249.495,280.099 255.363,282.744 262.713,284.432 C 265.272,281.056 268.378,277.621 272.07,274.664 L 272.07,274.664 z"
     id="path35"
     style="fill:#00a651" /><path
     d="M 339.82,262.729 C 344.303,264.232 348.401,266.419 351.949,268.682 C 358.287,264.59 362.896,260.123 364.764,258.354 C 362.405,257.306 356.534,254.665 349.174,252.979 C 346.632,256.359 343.515,259.787 339.82,262.729 L 339.82,262.729 z"
     id="path37"
     style="fill:#00a651" /><path
     d="M 262.713,284.432 C 258.171,290.451 255.373,296.232 254.231,298.557 C 256.819,298.706 263.21,299.197 270.712,298.263 C 271.968,294.245 273.7,289.947 276.153,285.9 C 271.438,286.005 266.854,285.358 262.713,284.432 L 262.713,284.432 z"
     id="path39"
     style="fill:#00a651" /><path
     d="M 349.175,252.979 C 353.733,246.953 356.523,241.172 357.666,238.854 C 355.089,238.703 348.682,238.209 341.18,239.144 C 339.947,243.178 338.209,247.465 335.745,251.525 C 340.462,251.396 345.062,252.029 349.175,252.979 L 349.175,252.979 z"
     id="path41"
     style="fill:#00a651" /><path
     d="M 283.826,295.036 C 279.444,296.754 274.912,297.741 270.712,298.263 C 268.49,305.49 267.856,311.891 267.567,314.451 C 270.046,313.722 276.237,311.982 282.939,308.536 C 282.732,304.322 282.892,299.675 283.826,295.036 L 283.826,295.036 z"
     id="path43"
     style="fill:#00a651" /><path
     d="M 328.063,242.342 C 332.462,240.645 337,239.659 341.179,239.144 C 343.396,231.925 344.053,225.53 344.339,222.956 C 341.852,223.684 335.663,225.424 328.944,228.873 C 329.157,233.094 328.983,237.716 328.063,242.342 L 328.063,242.342 z"
     id="path45"
     style="fill:#00a651" /><path
     d="M 282.939,308.536 C 283.326,316.085 284.897,322.304 285.523,324.805 C 287.598,323.272 292.806,319.542 297.95,314.001 C 296.314,310.102 294.897,305.691 294.173,301.023 C 290.628,304.143 286.696,306.607 282.939,308.536 L 282.939,308.536 z"
     id="path47"
     style="fill:#00a651" /><path
     d="M 328.945,228.872 C 328.567,221.314 326.98,215.105 326.369,212.594 C 324.295,214.128 319.069,217.867 313.935,223.412 C 315.574,227.303 316.995,231.72 317.709,236.389 C 321.257,233.271 325.185,230.803 328.945,228.872 L 328.945,228.872 z"
     id="path49"
     style="fill:#00a651" /><path
     d="M 301.844,245.491 C 302.595,241.469 304.071,237.716 305.944,234.314 C 303.673,230.158 300.836,226.51 297.951,223.412 C 296.315,227.312 294.898,231.72 294.174,236.389 C 297.105,238.964 299.759,241.965 301.844,245.491 L 301.844,245.491 z"
     id="path51"
     style="fill:#80c342" /><path
     d="M 310.049,291.921 C 309.283,295.938 307.812,299.684 305.944,303.104 C 308.204,307.239 311.06,310.904 313.936,314.001 C 315.575,310.102 316.996,305.691 317.71,301.023 C 314.784,298.449 312.134,295.429 310.049,291.921 L 310.049,291.921 z"
     id="path53"
     style="fill:#80c342" /><path
     d="M 283.826,242.342 C 287.44,243.769 290.974,245.685 294.162,248.299 C 293.484,244.24 293.581,240.234 294.173,236.389 C 290.628,233.271 286.696,230.81 282.94,228.878 C 282.732,233.094 282.892,237.73 283.826,242.342 L 283.826,242.342 z"
     id="path55"
     style="fill:#80c342" /><path
     d="M 328.063,295.036 C 324.446,293.657 320.91,291.722 317.73,289.124 C 318.401,293.162 318.296,297.158 317.709,301.023 C 321.256,304.142 325.184,306.607 328.944,308.536 C 329.157,304.322 328.983,299.675 328.063,295.036 L 328.063,295.036 z"
     id="path57"
     style="fill:#80c342" /><path
     d="M 287.893,253.575 C 285.866,249.981 284.596,246.164 283.827,242.342 C 279.445,240.645 274.913,239.659 270.713,239.144 C 271.969,243.178 273.701,247.465 276.154,251.525 C 280.034,251.591 284.021,252.209 287.893,253.575 L 287.893,253.575 z"
     id="path59"
     style="fill:#80c342" /><path
     d="M 324,283.848 C 326.025,287.412 327.291,291.231 328.063,295.036 C 332.462,296.754 337,297.741 341.179,298.263 C 339.946,294.245 338.208,289.947 335.744,285.9 C 331.853,285.812 327.871,285.209 324,283.848 L 324,283.848 z"
     id="path61"
     style="fill:#80c342" /><path
     d="M 272.07,262.729 C 275.754,261.494 279.698,260.701 283.786,260.654 C 280.666,257.973 278.171,254.834 276.153,251.526 C 271.437,251.397 266.854,252.03 262.713,252.98 C 265.272,256.359 268.378,259.787 272.07,262.729 L 272.07,262.729 z"
     id="path63"
     style="fill:#80c342" /><path
     d="M 339.82,274.664 C 336.138,275.909 332.198,276.709 328.106,276.745 C 331.219,279.417 333.721,282.566 335.745,285.899 C 340.462,286.004 345.061,285.358 349.175,284.431 C 346.632,281.056 343.515,277.621 339.82,274.664 L 339.82,274.664 z"
     id="path65"
     style="fill:#80c342" /><path
     d="M 282.37,268.682 C 278.526,267.27 275.111,265.155 272.07,262.729 C 267.59,264.232 263.482,266.419 259.952,268.682 C 263.482,270.977 267.59,273.157 272.07,274.664 C 275.111,272.229 278.526,270.113 282.37,268.682 L 282.37,268.682 z"
     id="path67"
     style="fill:#80c342" /><path
     d="M 329.519,268.682 C 333.357,270.114 336.796,272.229 339.821,274.664 C 344.304,273.156 348.402,270.976 351.95,268.682 C 348.402,266.419 344.304,264.232 339.821,262.729 C 336.796,265.154 333.356,267.27 329.519,268.682 L 329.519,268.682 z"
     id="path69"
     style="fill:#80c342" /><path
     d="M 276.153,285.899 C 278.171,282.566 280.666,279.417 283.786,276.745 C 279.698,276.709 275.754,275.914 272.07,274.664 C 268.378,277.621 265.272,281.056 262.713,284.432 C 266.854,285.358 271.438,286.005 276.153,285.899 L 276.153,285.899 z"
     id="path71"
     style="fill:#80c342" /><path
     d="M 335.745,251.525 C 333.722,254.833 331.22,257.973 328.106,260.653 C 332.198,260.7 336.138,261.493 339.82,262.728 C 343.514,259.787 346.632,256.359 349.174,252.978 C 345.062,252.029 340.462,251.396 335.745,251.525 L 335.745,251.525 z"
     id="path73"
     style="fill:#80c342" /><path
     d="M 287.893,283.848 C 284.021,285.209 280.035,285.812 276.154,285.9 C 273.701,289.947 271.968,294.246 270.713,298.263 C 274.913,297.742 279.445,296.754 283.827,295.036 C 284.596,291.23 285.865,287.412 287.893,283.848 L 287.893,283.848 z"
     id="path75"
     style="fill:#80c342" /><path
     d="M 324,253.575 C 327.871,252.209 331.853,251.591 335.745,251.525 C 338.209,247.465 339.946,243.177 341.18,239.144 C 337,239.659 332.463,240.645 328.064,242.342 C 327.291,246.164 326.025,249.98 324,253.575 L 324,253.575 z"
     id="path77"
     style="fill:#80c342" /><path
     d="M 301.844,291.921 C 299.759,295.429 297.106,298.449 294.173,301.024 C 294.898,305.692 296.315,310.102 297.95,314.002 C 300.835,310.904 303.673,307.239 305.943,303.105 C 304.07,299.684 302.595,295.938 301.844,291.921 L 301.844,291.921 z"
     id="path79"
     style="fill:#80c342" /><path
     d="M 294.162,289.124 C 290.974,291.722 287.44,293.657 283.826,295.036 C 282.891,299.675 282.732,304.322 282.939,308.536 C 286.696,306.607 290.627,304.142 294.172,301.023 C 293.581,297.158 293.484,293.162 294.162,289.124 L 294.162,289.124 z"
     id="path81"
     style="fill:#80c342" /><path
     d="M 310.049,245.491 C 312.134,241.965 314.784,238.959 317.71,236.388 C 316.995,231.719 315.574,227.303 313.936,223.411 C 311.06,226.509 308.204,230.157 305.944,234.313 C 307.812,237.716 309.283,241.469 310.049,245.491 L 310.049,245.491 z"
     id="path83"
     style="fill:#80c342" /><path
     d="M 317.73,248.298 C 320.91,245.685 324.446,243.769 328.063,242.341 C 328.983,237.716 329.157,233.093 328.945,228.871 C 325.184,230.803 321.257,233.27 317.71,236.388 C 318.297,240.233 318.401,244.239 317.73,248.298 L 317.73,248.298 z"
     id="path85"
     style="fill:#80c342" /><path
     d="M 301.854,257.525 C 299.753,253.748 297.112,250.721 294.162,248.298 C 294.777,252.076 296.083,255.876 298.279,259.593 C 295.018,256.775 291.505,254.828 287.892,253.574 C 289.749,256.892 292.291,260.031 295.625,262.738 C 291.588,261.223 287.608,260.613 283.785,260.653 C 286.695,263.126 290.129,265.2 294.204,266.632 C 289.892,266.567 285.952,267.342 282.369,268.682 C 285.952,270.024 289.892,270.808 294.204,270.742 C 290.129,272.174 286.695,274.253 283.785,276.746 C 287.608,276.787 291.588,276.173 295.625,274.645 C 292.291,277.38 289.749,280.506 287.892,283.848 C 291.504,282.567 295.018,280.624 298.279,277.81 C 296.083,281.531 294.777,285.334 294.162,289.124 C 297.112,286.673 299.754,283.645 301.854,279.895 C 301.059,284.13 301.151,288.151 301.843,291.921 C 303.796,288.615 305.242,284.862 305.943,280.609 C 306.653,284.862 308.085,288.615 310.048,291.921 C 310.747,288.15 310.819,284.13 310.026,279.895 C 312.133,283.646 314.764,286.673 317.73,289.124 C 317.113,285.334 315.796,281.53 313.6,277.81 C 316.863,280.624 320.388,282.567 323.999,283.848 C 322.122,280.506 319.6,277.38 316.266,274.645 C 320.298,276.172 324.277,276.787 328.106,276.746 C 325.184,274.253 321.745,272.174 317.674,270.742 C 321.99,270.808 325.94,270.024 329.518,268.682 C 325.94,267.342 321.991,266.567 317.674,266.632 C 321.744,265.2 325.184,263.126 328.106,260.653 C 324.277,260.613 320.298,261.223 316.262,262.738 C 319.6,260.031 322.122,256.892 323.999,253.574 C 320.388,254.832 316.862,256.775 313.6,259.597 C 315.796,255.875 317.113,252.076 317.73,248.298 C 314.764,250.721 312.133,253.748 310.026,257.525 C 310.82,253.283 310.748,249.267 310.048,245.491 C 308.084,248.783 306.652,252.551 305.943,256.798 C 305.243,252.551 303.797,248.784 301.843,245.491 C 301.151,249.267 301.06,253.283 301.854,257.525 L 301.854,257.525 z"
     id="path87"
     style="fill:#ffffff" /><path
     d="M 301.854,257.525 C 301.059,253.283 301.151,249.267 301.843,245.491 C 299.758,241.965 297.105,238.964 294.172,236.388 C 293.58,240.232 293.484,244.239 294.161,248.298 C 297.112,250.722 299.754,253.748 301.854,257.525 L 301.854,257.525 z"
     id="path89"
     style="fill:#ffd900" /><path
     d="M 310.026,279.895 C 310.82,284.13 310.748,288.151 310.048,291.921 C 312.133,295.429 314.783,298.449 317.709,301.024 C 318.296,297.159 318.4,293.163 317.73,289.125 C 314.765,286.673 312.134,283.646 310.026,279.895 L 310.026,279.895 z"
     id="path91"
     style="fill:#ffd900" /><path
     d="M 294.162,248.298 C 290.974,245.685 287.44,243.769 283.826,242.341 C 284.596,246.163 285.865,249.98 287.892,253.574 C 291.504,254.828 295.018,256.775 298.279,259.593 C 296.083,255.876 294.777,252.076 294.162,248.298 L 294.162,248.298 z"
     id="path93"
     style="fill:#ffd900" /><path
     d="M 317.73,289.124 C 320.91,291.722 324.446,293.657 328.063,295.036 C 327.291,291.23 326.025,287.412 324,283.848 C 320.389,282.567 316.863,280.624 313.601,277.81 C 315.797,281.53 317.113,285.334 317.73,289.124 L 317.73,289.124 z"
     id="path95"
     style="fill:#ffd900" /><path
     d="M 295.626,262.738 C 292.292,260.031 289.75,256.892 287.893,253.574 C 284.021,252.208 280.035,251.59 276.154,251.524 C 278.172,254.832 280.667,257.972 283.787,260.652 C 287.609,260.613 291.589,261.224 295.626,262.738 L 295.626,262.738 z"
     id="path97"
     style="fill:#ffd900" /><path
     d="M 316.267,274.645 C 319.601,277.38 322.123,280.506 324,283.848 C 327.871,285.209 331.853,285.812 335.745,285.9 C 333.722,282.567 331.22,279.418 328.106,276.746 C 324.277,276.786 320.299,276.172 316.267,274.645 L 316.267,274.645 z"
     id="path99"
     style="fill:#ffd900" /><path
     d="M 294.205,266.632 C 290.13,265.2 286.696,263.126 283.786,260.653 C 279.698,260.7 275.754,261.493 272.07,262.728 C 275.111,265.154 278.526,267.269 282.37,268.681 C 285.953,267.342 289.894,266.566 294.205,266.632 L 294.205,266.632 z"
     id="path101"
     style="fill:#ffd900" /><path
     d="M 317.675,270.741 C 321.745,272.173 325.185,274.252 328.107,276.745 C 332.199,276.709 336.139,275.909 339.821,274.664 C 336.797,272.228 333.357,270.113 329.519,268.682 C 325.94,270.023 321.991,270.808 317.675,270.741 L 317.675,270.741 z"
     id="path103"
     style="fill:#ffd900" /><path
     d="M 282.37,268.682 C 278.526,270.114 275.111,272.229 272.07,274.664 C 275.754,275.914 279.698,276.709 283.786,276.745 C 286.696,274.252 290.13,272.173 294.205,270.741 C 289.894,270.808 285.953,270.023 282.37,268.682 L 282.37,268.682 z"
     id="path105"
     style="fill:#ffd900" /><path
     d="M 329.519,268.682 C 333.357,267.27 336.796,265.155 339.821,262.729 C 336.139,261.494 332.199,260.701 328.107,260.654 C 325.185,263.127 321.746,265.201 317.675,266.633 C 321.991,266.566 325.94,267.342 329.519,268.682 L 329.519,268.682 z"
     id="path107"
     style="fill:#ffd900" /><path
     d="M 295.626,274.645 C 291.589,276.172 287.609,276.787 283.786,276.746 C 280.666,279.418 278.171,282.567 276.153,285.9 C 280.034,285.812 284.02,285.21 287.892,283.848 C 289.75,280.506 292.292,277.38 295.626,274.645 L 295.626,274.645 z"
     id="path109"
     style="fill:#ffd900" /><path
     d="M 316.263,262.738 C 320.299,261.223 324.278,260.613 328.107,260.653 C 331.22,257.972 333.722,254.833 335.746,251.525 C 331.853,251.591 327.872,252.209 324.001,253.575 C 322.123,256.893 319.601,260.031 316.263,262.738 L 316.263,262.738 z"
     id="path111"
     style="fill:#ffd900" /><path
     d="M 301.844,291.921 C 302.595,295.938 304.071,299.684 305.944,303.104 C 307.812,299.684 309.284,295.938 310.049,291.921 C 308.085,288.615 306.653,284.862 305.944,280.609 C 305.243,284.862 303.797,288.615 301.844,291.921 L 301.844,291.921 z"
     id="path113"
     style="fill:#ffd900" /><path
     d="M 301.854,279.895 C 299.753,283.646 297.112,286.673 294.162,289.124 C 293.484,293.162 293.581,297.158 294.173,301.023 C 297.106,298.449 299.759,295.428 301.844,291.92 C 301.151,288.15 301.06,284.13 301.854,279.895 L 301.854,279.895 z"
     id="path115"
     style="fill:#ffd900" /><path
     d="M 287.893,283.848 C 285.866,287.412 284.596,291.231 283.827,295.036 C 287.441,293.657 290.975,291.722 294.163,289.124 C 294.778,285.334 296.084,281.53 298.28,277.81 C 295.019,280.624 291.505,282.566 287.893,283.848 L 287.893,283.848 z"
     id="path117"
     style="fill:#ffd900" /><path
     d="M 310.049,245.491 C 309.283,241.469 307.812,237.716 305.944,234.314 C 304.071,237.716 302.595,241.469 301.844,245.491 C 303.797,248.783 305.243,252.551 305.944,256.798 C 306.653,252.551 308.085,248.784 310.049,245.491 L 310.049,245.491 z"
     id="path119"
     style="fill:#ffd900" /><path
     d="M 310.026,257.525 C 312.133,253.748 314.764,250.721 317.73,248.298 C 318.401,244.239 318.296,240.233 317.709,236.388 C 314.783,238.959 312.133,241.964 310.048,245.491 C 310.748,249.267 310.82,253.283 310.026,257.525 L 310.026,257.525 z"
     id="path121"
     style="fill:#ffd900" /><path
     d="M 324,253.575 C 326.025,249.981 327.291,246.164 328.063,242.342 C 324.446,243.769 320.91,245.685 317.73,248.299 C 317.113,252.077 315.796,255.877 313.6,259.598 C 316.863,256.775 320.389,254.833 324,253.575 L 324,253.575 z"
     id="path123"
     style="fill:#ffd900" /><polygon
     points="82.202,236.038 55.557,236.038 64.976,210.637 91.628,210.637 82.202,236.038 "
     id="polygon125"
     style="fill:#00539b" /><polygon
     points="78.273,298.549 63.195,298.549 95.182,210.637 110.262,210.637 78.273,298.549 "
     id="polygon127"
     style="fill:#00539b" /><polygon
     points="97.163,298.549 82.148,298.549 114.144,210.637 129.25,210.637 97.163,298.549 "
     id="polygon129"
     style="fill:#00539b" /><polygon
     points="128.793,236.038 123.958,236.038 133.263,210.637 138.202,210.637 128.793,236.038 "
     id="polygon131"
     style="fill:#00539b" /><polygon
     points="137.779,236.038 132.847,236.038 142.375,210.637 147.207,210.637 137.779,236.038 "
     id="polygon133"
     style="fill:#00539b" /><polygon
     points="146.896,236.038 141.751,236.038 151.05,210.637 156.216,210.637 146.896,236.038 "
     id="polygon135"
     style="fill:#00539b" /><path
     d="M 138.649,260.333 L 151.38,260.333 L 158.966,239.891 L 182.126,239.891 C 179.604,246.461 176.861,254.147 174.672,260.858 L 195.615,239.891 L 218.758,239.891 L 189.659,268.407 C 194.459,280.374 196.033,284.128 202.103,298.549 L 176.867,298.549 C 174.389,291.722 171.911,285.103 168.6,277.085 C 166.199,283.243 163.137,292.287 160.932,298.549 L 137.768,298.549 L 146.006,275.481 C 141.78,275.452 137.8,275.452 133.169,275.481 L 124.598,298.549 L 101.334,298.549 L 122.626,239.891 L 145.898,239.891 L 138.649,260.333 L 138.649,260.333 z"
     id="path137"
     style="fill:#00539b" /><path
     d="M 106.326,78.882 L 53.623,78.882 L 53.623,89.112 C 53.623,89.112 72.287,89.112 74.019,89.112 C 74.019,90.917 74.019,127.53 74.019,127.53 L 86.787,127.53 C 86.787,127.53 86.787,90.917 86.787,89.112 C 88.513,89.112 107.271,89.112 107.271,89.112 L 107.271,78.882 L 106.326,78.882 L 106.326,78.882 z"
     id="path139"
     style="fill:#ffffff" /><path
     d="M 168.11,78.882 L 157.379,78.882 L 157.379,104.381 C 157.379,104.381 157.549,107.538 157.687,109.937 C 156.615,108.869 155.449,107.791 154.027,106.634 L 120.87,78.882 L 112.152,78.882 L 112.152,127.53 L 123.831,127.53 L 123.831,101.301 C 123.831,101.301 123.655,98.487 123.522,96.262 C 124.595,97.311 125.7,98.389 125.7,98.389 C 125.711,98.396 160.334,127.53 160.334,127.53 L 169.061,127.53 L 169.061,78.882 L 168.11,78.882 L 168.11,78.882 z"
     id="path141"
     style="fill:#ffffff" /><path
     d="M 229.973,78.882 L 213.88,78.882 C 213.88,78.882 191.904,95.396 189.227,97.412 C 189.227,94.322 189.227,78.882 189.227,78.882 L 176.371,78.882 L 176.371,127.53 L 189.227,127.53 C 189.227,127.53 189.227,110.97 189.227,107.878 C 191.912,109.861 215.969,127.53 215.969,127.53 L 236.736,127.53 C 236.736,127.53 202.642,103.289 200.6,101.842 C 202.63,100.408 232.934,78.882 232.934,78.882 L 229.973,78.882 L 229.973,78.882 z"
     id="path143"
     style="fill:#ffffff" /><path
     d="M 301.19,102.518 C 304.676,101.141 306.598,98.43 306.598,94.601 L 306.598,88.888 C 306.598,81.959 303.057,78.883 295.132,78.883 L 255.617,78.883 L 254.668,78.883 L 254.668,127.531 L 292.23,127.531 C 301.991,127.531 306.955,124.134 306.955,117.435 L 306.955,111.456 C 306.955,107.162 304.865,104.076 301.19,102.518 L 301.19,102.518 z M 267.259,88.376 C 269.011,88.376 290.6,88.376 290.6,88.376 C 294.08,88.376 294.632,89.092 294.632,90.788 L 294.632,95.226 C 294.632,96.927 294.08,97.634 290.6,97.634 C 290.6,97.634 269.011,97.634 267.259,97.634 C 267.259,96.205 267.259,89.83 267.259,88.376 L 267.259,88.376 z M 294.911,113.985 C 294.911,116.64 294.146,117.213 290.599,117.213 C 290.599,117.213 269.01,117.213 267.258,117.213 C 267.258,115.742 267.258,108.691 267.258,107.231 C 269.01,107.231 290.599,107.231 290.599,107.231 C 294.146,107.231 294.911,107.807 294.911,110.457 L 294.911,113.985 L 294.911,113.985 z"
     id="path145"
     style="fill:#ffffff" /><path
     d="M 355.17,78.882 L 315.655,78.882 L 314.7,78.882 L 314.7,127.53 L 327.291,127.53 C 327.291,127.53 327.291,111.013 327.291,109.318 C 329.069,109.318 355.17,109.318 355.17,109.318 C 363.11,109.318 366.637,106.232 366.637,99.307 L 366.637,88.887 C 366.637,81.959 363.11,78.882 355.17,78.882 L 355.17,78.882 z M 354.236,96.583 C 354.236,98.702 353.677,99.358 350.286,99.358 C 350.286,99.358 329.049,99.358 327.291,99.358 C 327.291,97.874 327.291,90.319 327.291,88.838 C 329.049,88.838 350.286,88.838 350.286,88.838 C 353.678,88.838 354.236,89.489 354.236,91.609 L 354.236,96.583 L 354.236,96.583 z"
     id="path147"
     style="fill:#ffffff" /><polygon
     points="243.777,108.667 231.201,108.667 231.201,96.1 243.777,96.1 243.777,108.667 "
     id="polygon149"
     style="fill:#ffffff" /></g>
</svg>