<svg xmlns="http://www.w3.org/2000/svg" viewBox="0 0 2237.97 2633.44"><defs><style>.cls-1{fill:#575759;}.cls-2{fill:#168942;}</style></defs><title>Asset 1</title><g id="Layer_2" data-name="Layer 2"><g id="Layer_1-2" data-name="Layer 1"><g id="Page-1"><g id="A4-300dpi"><g id="IRK-Logo"><g id="fountain"><g id="Left"><path id="Path-1" class="cls-1" d="M34.8,1686.19s-23-90.66-31.17-231.27,0-194.77,0-194.77,45.25-107.4,138.25-192,176.54-116.9,289.84-116.9,224.42,88.74,310.2,181.84,305.12,479,305.12,479-196.23-245.85-243.52-293.36S647.44,1158.06,506.2,1167.47,241.83,1280.3,141.88,1454.91,34.8,1686.19,34.8,1686.19Z"/><path id="Path-2" class="cls-1" d="M43.53,958.33S57.45,864.66,100.76,748s92.92-170.8,92.92-170.8,50.1-27.22,193.27-27.22S665.2,646.53,748,773.25c54.49,83.43,134.69,237.52,166.91,322.68s172,524.89,172,524.89-164.49-408.1-250.48-524.89S608.13,801.13,400.91,801.13,43.53,958.33,43.53,958.33Z"/><path id="Path-3" class="cls-1" d="M317.79,403.34s66.71-81.25,105.51-117.1c37.06-34.23,122.07-93.11,122.07-93.11S733.28,238.91,829.6,384s172.82,316.5,197.82,501.16,79,681.43,79,681.43-85.95-465.2-151.58-655.12-152-339.58-285.53-427.56S317.79,403.34,317.79,403.34Z"/><path id="Path-4" class="cls-1" d="M750.84,79.83s79.71-41.66,122.78-55.46C913.64,11.56,1000.11,0,1000.11,0s46.19,104.4,69.36,307.59S1119,1235.15,1119,1235.15s-42-420.35-72.78-602.13S972.65,331.49,919.78,242.77,750.84,79.83,750.84,79.83Z"/></g><g id="Right"><path id="Path-1-2" data-name="Path-1" class="cls-1" d="M2203.17,1686.19s23-90.66,31.17-231.27,0-194.77,0-194.77-45.25-107.4-138.25-192-176.54-116.9-289.84-116.9S1581.83,1040,1496,1133.06s-305.12,479-305.12,479,196.23-245.85,243.52-293.36,156.08-160.64,297.32-151.23,264.38,112.82,364.32,287.44S2203.17,1686.19,2203.17,1686.19Z"/><path id="Path-2-2" data-name="Path-2" class="cls-1" d="M2194.44,958.33s-13.92-93.67-57.23-210.36-92.92-170.8-92.92-170.8-50.1-27.22-193.27-27.22-278.25,96.58-361,223.31c-54.49,83.43-134.69,237.52-166.91,322.68s-172,524.89-172,524.89,164.49-408.1,250.48-524.89,228.21-294.81,435.44-294.81S2194.44,958.33,2194.44,958.33Z"/><path id="Path-3-2" data-name="Path-3" class="cls-1" d="M1920.18,403.34s-66.71-81.25-105.51-117.1c-37.06-34.23-122.07-93.11-122.07-93.11S1504.69,238.91,1408.37,384s-172.82,316.5-197.82,501.16-79,681.43-79,681.43,85.95-465.2,151.58-655.12,152-339.58,285.53-427.56S1920.18,403.34,1920.18,403.34Z"/><path id="Path-4-2" data-name="Path-4" class="cls-1" d="M1487.13,79.83s-79.71-41.66-122.78-55.46C1324.33,11.56,1237.86,0,1237.86,0s-46.19,104.4-69.36,307.59S1119,1235.15,1119,1235.15,1161,814.8,1191.77,633s73.55-301.53,126.42-390.25S1487.13,79.83,1487.13,79.83Z"/></g></g><g id="Letters"><path id="Path-5" class="cls-2" d="M180.63,1991.57s90.41-40.29,136.7-55.85c51.11-17.18,155.53-42.37,155.53-42.37v206.87s1.86,8,19.83,8,21.86-8,21.86-8,49.09-88.82,75.32-131.33c23.62-38.29,74.21-111.07,74.21-111.07s55.32-9.9,86.06-13.77c28.14-3.53,90.57-8.42,90.57-8.42v766.81s-70.71-31.2-104.23-48.59c-31.84-16.52-91.83-53.13-91.83-53.13V2160.86s-3.19-4.91-13.91-4.91-13.47,4.91-13.47,4.91-34.21,64.79-54,96.64c-24.29,39-78.29,116-78.29,116s-114-103.59-161.22-166.43S180.63,1991.57,180.63,1991.57Z"/><path id="Path-6" class="cls-2" d="M920,1833.79s56.93-8.37,85.4-10.66c32.09-2.58,96.27-4,96.27-4v228.09h147.5V1819.18s65.61,3,100.25,7c30.46,3.53,95,15.6,95,15.6v776.53s-61,7.9-89.69,10c-35.71,2.62-103.43,4.17-103.43,4.17v-375H1101.64v375.94s-64.59-2.47-96.27-5.1c-28.87-2.4-85.4-10-85.4-10Z"/><path id="Path-7" class="cls-2" d="M1515.89,1850.67s65.86,3.57,97.93,7.15c33.87,3.78,99.89,14.9,99.89,14.9V2064.6s5.07,5.4,19.4,5.4,20.76-5.4,20.76-5.4l110.56-169.14s68.29,13.43,103.11,25.33c30.18,10.31,91.9,41.3,91.9,41.3l-121.3,133.68,110,93.52s-55.68,69.59-85.86,102.09c-35.62,38.36-111.54,110.5-111.54,110.5v-119.1s-30.39-19-63.07-29.47-68.62-13.89-68.62-13.89v253.5l-203.16,102.38Z"/></g></g></g></g></g></g></svg>